<?xml version="1.0" encoding="utf-8"?>
<!-- Generator: Adobe Illustrator 25.3.0, SVG Export Plug-In . SVG Version: 6.00 Build 0)  -->
<svg version="1.1" id="b1edf876-5da0-4179-85bc-2c7718e75d01"
	 xmlns="http://www.w3.org/2000/svg" xmlns:xlink="http://www.w3.org/1999/xlink" x="0px" y="0px" viewBox="0 0 1153.4 845.7"
	 style="enable-background:new 0 0 1153.4 845.7;" xml:space="preserve">
<style type="text/css">
	.st0{opacity:0.1;fill:#F9A826;enable-background:new    ;}
	.st1{fill:#F9A826;}
	.st2{fill:#464353;}
	.st3{opacity:0.1;}
	.st4{fill:#F2F2F2;}
</style>
<path class="st0" d="M1146.4,387l-129.9,300.6L972,790.5c-14.4,33.4-48.6,55.2-86.5,55.2H267.9c-37.9,0-72-21.8-86.5-55.2l-6.2-14.3
	L7.1,387c-17.9-41.4-0.8-89,40-111.3l40.8-22.3l23.3-12.8l117-63.9l34.1-18.6l43.9-24l50.1-27.4l35.7-19.5l87-47.5l20-10.9
	l30.4-16.6l0.8-0.5c29-15.7,64-15.7,93,0l154.5,84.4l49.6,27.1l0,0l50.9,27.8l35.3,19.3l81.7,44.6l0,0l65.4,35.7l0,0l45.8,25
	C1147.2,298,1164.3,345.6,1146.4,387z"/>
<path class="st0" d="M320.6,137.4c-3.8-0.9-8.8-2-14.4-3.3l50.1-27.4c27.8,7.1,54.6,12.3,70.5,11.3c0,0,4.8,8.7-8.7,8.7
	s-0.4,12.1-8.8,12.9s-15.1,5.7-21.9,0s-11.1-8.7-19.5-7.6s-19.9,7.2-23.9,0S342.9,142.8,320.6,137.4z"/>
<path class="st0" d="M725.5,103.1c12.4,0.7,31.3-2.2,52.2-7l49.6,27.1c-17.5,2.1-15.4-12.8-19.1-6.1c-4,7.2-15.5,1.1-23.9,0
	s-12.7,1.9-19.5,7.6s-13.5,0.8-21.9,0s4.8-12.9-8.8-12.9S725.5,103.1,725.5,103.1z"/>
<path class="st0" d="M1073.9,368.4c13.5,0,8.8-8.7,8.8-8.7c-36.9,2.2-132.1-28.7-163.5-39.3l-3.4-90.7c17.1,11.3,42.8,16,55.1,19
	c22.3,5.3,19.5-12.5,23.5-5.3s15.5,1.1,23.9,0s12.7,1.9,19.5,7.6s13.5,0.8,21.9,0c0.4,0,0.7-0.1,1.1-0.2L995.2,215l0,0
	c-32.5-8.7-64.6-19.2-80.9-24.8l-0.7-19.8l-35.3-19.3l0.8,42.2c-38.2,12.6-119.9,38-153.5,36c0,0-4.8,8.7,8.7,8.7s0.4,12.1,8.8,12.9
	s15.1,5.7,21.9,0s11.1-8.7,19.5-7.6s19.9,7.2,23.9,0s1.2,10.6,23.5,5.3c10.7-2.5,31.6-6.5,48.1-14.9l1.6,87.3
	c-33.3,11.2-125.3,40.8-161.5,38.6c0,0-4.8,8.7,8.8,8.7s0.4,12.1,8.8,12.9s15.1,5.7,21.9,0s11.1-8.7,19.5-7.6s19.9,7.2,23.9,0
	s1.2,10.6,23.5,5.3c12.5-3,39-7.9,56-19.6l1.8,93c-35.6,11.9-123.3,39.7-158.4,37.6c0,0-4.8,8.7,8.7,8.7s0.5,12.1,8.8,12.9
	c8.3,0.8,15.1,5.7,21.9,0c6.8-5.7,11.1-8.7,19.5-7.6s19.9,7.2,23.9,0s1.2,10.6,23.5,5.3c11.8-2.8,35.9-7.3,52.9-17.6l3.9,205.2l0,0
	c-40.2,13.1-78.9,31.7-121,37.3c-70.3,9.5-142-18-212-17.3L550,568.5c16,7.5,35.2,11.1,45.2,13.5c22.3,5.3,19.5-12.5,23.5-5.3
	s15.5,1.1,23.9,0s12.7,1.9,19.5,7.6s13.5,0.8,21.9,0s-4.8-12.9,8.8-12.9s8.7-8.7,8.7-8.7c-33.4,2-114.5-23.1-153-35.8l-3.5-94.7
	c17.1,11.7,43.5,16.5,55.9,19.5c22.3,5.3,19.5-12.5,23.5-5.3s15.5,1.1,23.9,0s12.7,1.9,19.5,7.6s13.5,0.7,21.9,0s-4.8-12.9,8.8-12.9
	s8.7-8.7,8.7-8.7c-36.9,2.2-132.1-28.7-163.5-39.3l-3.4-90.7c17.1,11.3,42.9,16,55.1,19c22.3,5.3,19.5-12.5,23.5-5.3
	s15.5,1.1,23.9,0s12.7,1.9,19.5,7.6s13.5,0.8,21.9,0s-4.8-12.9,8.8-12.9s8.7-8.7,8.7-8.7c-36.6,2.2-130.5-28.2-162.7-39.1l-3.4-90.2
	c16.7,13.9,46.5,19.3,59.9,22.5c22.3,5.3,19.5-12.5,23.5-5.3s15.5,1.1,23.9,0s12.7,1.9,19.5,7.6s13.5,0.8,21.9,0s-4.8-12.9,8.8-12.9
	s8.7-8.7,8.7-8.7c-38.7,2.3-141.1-31.7-167.5-40.7l-2.1-56.8c16.2,7.9,36.2,11.7,46.6,14.2c22.3,5.3,19.5-12.5,23.5-5.3
	s15.5,1.1,23.9,0c8.3-1.1,12.7,1.9,19.5,7.6s13.5,0.8,21.9,0s-4.8-12.9,8.8-12.9s8.7-8.7,8.7-8.7c-33.8,2-116.5-23.7-154.3-36.2
	l-0.9-24.7L499,28.8l0.1,4.2c-4.9,1.7-11.7,4-20,6.6l-87,47.5c8.4,1.1,19.9,7.2,23.8,0c4-7.2,1.2,10.6,23.5,5.3
	c13.6-3.2,43.9-8.8,60.4-23l1.3,71C462,153.5,382.9,177.8,350,175.8c0,0-4.8,8.7,8.8,8.7s0.4,12.1,8.8,12.9s15.1,5.7,21.9,0
	s11.1-8.7,19.5-7.6s19.9,7.2,23.9,0s1.2,10.6,23.5,5.3c10.2-2.4,29.6-6.1,45.7-13.7l1.6,84.5c-38.2,12.6-119.9,38-153.5,36
	c0,0-4.8,8.7,8.8,8.7s0.4,12.1,8.8,12.9s15.1,5.7,21.9,0s11.1-8.7,19.5-7.6s19.9,7.2,23.9,0s1.2,10.6,23.5,5.3
	c10.7-2.5,31.6-6.5,48.1-14.9l1.6,87.3c-33.3,11.1-125.4,40.7-161.5,38.6c0,0-4.8,8.7,8.7,8.7s0.4,12.1,8.8,12.9s15.1,5.7,21.9,0
	s11.1-8.7,19.5-7.6s19.9,7.2,23.9,0s1.2,10.6,23.5,5.3c12.5-3,39-7.9,56-19.6l1.8,93.1C472.7,537,385.1,564.8,350,562.7
	c0,0-4.8,8.7,8.8,8.7s0.4,12.1,8.8,12.9s15.1,5.7,21.9,0s11.1-8.7,19.5-7.6s19.9,7.2,23.9,0s1.2,10.6,23.5,5.3
	c11.8-2.8,35.9-7.3,52.9-17.6l3,157.3l0,0l-1.3,0.3c-28.3,6.5-54.6,19.8-83.1,25.4c-46.5,9.1-96.4-2.8-143.7-4.7l-8.6-231.9
	c16,7.5,35.2,11.1,45.2,13.5c22.3,5.3,19.5-12.5,23.5-5.3c4,7.2,15.5,1.1,23.9,0s12.7,1.9,19.5,7.6s13.5,0.8,21.9,0
	s-4.8-12.9,8.8-12.9s8.7-8.7,8.7-8.7c-33.4,2-114.5-23.1-153-35.8l-3.5-94.7c17.1,11.7,43.5,16.5,55.9,19.5
	c22.3,5.3,19.5-12.5,23.5-5.3s15.5,1.1,23.9,0s12.7,1.9,19.5,7.6s13.5,0.7,21.9,0s-4.8-12.9,8.8-12.9s8.8-8.7,8.8-8.7
	c-36.9,2.2-132.1-28.7-163.5-39.3l-3.4-90.7c17.1,11.3,42.9,16,55.1,19c22.3,5.3,19.5-12.5,23.5-5.3s15.5,1.1,23.9,0
	s12.8,1.8,19.5,7.5s13.5,0.7,21.9,0s-4.8-12.9,8.8-12.9s8.7-8.7,8.7-8.7c-36.6,2.2-130.6-28.2-162.8-39.1l-1.8-47l-34.1,18.6
	l0.6,31.5c-27.9,9.2-79,25.2-117.6,32.4l-23.3,12.8c6.9,2.3-2.4,11.8,5,12.4c8.3,0.7,15.1,5.7,21.9,0s11.1-8.7,19.5-7.6
	s19.9,7.2,23.9,0s1.2,10.6,23.5,5.3c10.7-2.5,31.6-6.5,48.1-14.9l1.6,87.3c-33.3,11.2-125.3,40.8-161.5,38.6c0,0-4.8,8.7,8.8,8.7
	s0.4,12.1,8.8,12.9s15.1,5.7,21.9,0s11.1-8.7,19.5-7.6s19.9,7.2,23.9,0s1.2,10.6,23.5,5.3c12.5-3,39-7.9,56.1-19.6l1.8,93
	c-35.6,11.9-123.3,39.7-158.4,37.6c0,0-4.8,8.7,8.7,8.7s0.4,12.1,8.8,12.9s15.1,5.7,21.9,0s11.1-8.7,19.5-7.6s19.9,7.2,23.9,0
	c4-7.2,1.2,10.6,23.5,5.3c11.8-2.8,35.9-7.3,52.9-17.6l4.5,238.4l0,0c-12,2-23.7,5.7-34.7,11c-10.6,5.2-20.3,12-29,20l6.2,14.3
	c14.4,33.4,48.6,55.2,86.5,55.2h617.6c37.9,0,72-21.8,86.5-55.2l44.5-102.8c-27.6-5.6-56-6.2-83.8-1.8l0,0l-7-190
	c16,7.5,35.2,11.1,45.2,13.5c22.3,5.3,19.5-12.5,23.5-5.3s15.5,1.1,23.9,0s12.7,1.9,19.5,7.6c6.8,5.7,13.5,0.7,21.9,0
	c8.3-0.7-4.8-12.9,8.8-12.9s8.7-8.7,8.7-8.7c-33.4,2-114.5-23.1-153-35.8l-3.5-94.7c17.1,11.6,43.5,16.5,55.9,19.5
	c22.3,5.3,19.5-12.5,23.5-5.3c4,7.2,15.5,1.1,23.9,0s12.7,1.9,19.5,7.6s13.5,0.8,21.9,0S1060.3,368.4,1073.9,368.4z"/>
<path class="st1" d="M897.1,184c6.8,44.6-12,84.4-12,84.4s-29.8-32.4-36.5-77s12-84.4,12-84.4S890.3,139.4,897.1,184z"/>
<path class="st1" d="M1022.8,255c24.5-0.3,44.6,12.9,44.6,12.9s-19.7,13.6-44.3,13.9s-44.6-12.9-44.6-12.9S998.3,255.2,1022.8,255z"
	/>
<path class="st1" d="M953.8,187.2c-22.8,25.1-27.7,57.9-27.7,57.9s32.2-7.9,55-33c22.8-25.1,27.7-57.9,27.7-57.9
	S976.6,162.1,953.8,187.2z"/>
<path class="st2" d="M321.6,219.7h727.8c9.9,0,17.9,7.3,17.9,16.4v593.3c0,9-8,16.4-17.9,16.4H321.6c-9.9,0-17.9-7.3-17.9-16.4V236
	C303.8,227,311.8,219.7,321.6,219.7z"/>
<g class="st3">
	<path d="M380.7,541.2c-1.7-3.5-0.3-7.7,3.1-9.4l17.6-8.5l142-69.2l12.5-6.1c0.1-0.1,0.2-0.1,0.4-0.2c3.6-1.5,7.7,0.2,9.1,3.8
		c0.3,0.8,0.5,1.7,0.5,2.6v41.3c0,3.8,3.1,6.9,7,7h346.6c3.9,0,7,3.1,7,7v57.1c0,3.8-3.2,7-7,7H572.9c-3.8,0-7,3.2-7,7V621
		c0,0.9-0.2,1.8-0.5,2.6c0,0.1-0.1,0.2-0.1,0.3c-1.7,3.5-5.8,5-9.3,3.3l-12.5-6l-142-68.5l-17.6-8.5
		C382.5,543.7,381.4,542.6,380.7,541.2z"/>
</g>
<path class="st1" d="M344.1,536.2c-1.7-3.5-0.3-7.7,3.1-9.4l17.6-8.5l142-69.2l12.5-6.1c0.1-0.1,0.2-0.1,0.4-0.2
	c3.6-1.5,7.7,0.2,9.1,3.8c0.3,0.8,0.5,1.7,0.5,2.6v41.3c0,3.8,3.1,6.9,7,7h346.6c3.9,0,7,3.1,7,7v57.1c0,3.8-3.2,7-7,7H536.3
	c-3.8,0-7,3.2-7,7V616c0,0.9-0.2,1.8-0.5,2.6c0,0.1-0.1,0.2-0.1,0.3c-1.7,3.5-5.8,5-9.3,3.3l-12.5-6l-142-68.5l-17.6-8.5
	C345.9,538.7,344.7,537.6,344.1,536.2z"/>
<rect x="436.6" y="510.4" transform="matrix(0.7071 0.7071 -0.7071 0.7071 588.7391 -346.0334)" class="st4" width="551" height="54.5"/>
<rect x="436.6" y="510.4" transform="matrix(-0.7071 0.7071 -0.7071 -0.7071 1595.7566 414.3246)" class="st4" width="551" height="54.5"/>
</svg>
