<?xml version="1.0" encoding="utf-8"?>
<!-- Generator: Adobe Illustrator 25.3.0, SVG Export Plug-In . SVG Version: 6.00 Build 0)  -->
<svg version="1.1" id="_x32_b8e3008-3352-469a-8231-8c916447ef06"
	 xmlns="http://www.w3.org/2000/svg" xmlns:xlink="http://www.w3.org/1999/xlink" x="0px" y="0px" viewBox="0 0 1037.9 772.3"
	 style="enable-background:new 0 0 1037.9 772.3;" xml:space="preserve">
<style type="text/css">
	.st0{opacity:0.1;fill:#F9A826;enable-background:new    ;}
	.st1{fill:none;stroke:#535461;stroke-width:2;stroke-miterlimit:10;}
	.st2{fill:#F9A826;}
	.st3{fill:url(#SVGID_1_);}
	.st4{fill:#DDE1EC;}
	.st5{opacity:0.3;fill:#535461;enable-background:new    ;}
	.st6{opacity:0.1;}
	.st7{fill:#535461;}
	.st8{opacity:5.000000e-02;enable-background:new    ;}
	.st9{opacity:0.1;enable-background:new    ;}
	.st10{fill:none;stroke:#535461;stroke-miterlimit:10;}
	.st11{fill:#A8A8A8;}
	.st12{opacity:0.2;enable-background:new    ;}
</style>
<g>
	<path class="st0" d="M104.4,77.3C98,80,91.4,83.4,87.8,89.5c-3.8,6.4-3.3,14.3-2.6,21.6c6.1,63.9,22.2,131.9-5.6,189.8
		c-13.5,28.1-36,50.6-53.9,76.1s-31.4,57.4-23.1,87.4c10.2,36.7,48.1,57,73.6,85.2c16.7,18.5,28.5,40.9,44.1,60.3s37,36.5,61.9,37.7
		c35.8,1.7,65-29.3,100.1-36.5c36-7.3,72.2,11.3,101.4,33.7s55.7,49.5,89.8,63.4c37.6,15.4,79.9,13.1,119.4,22.3
		c36,8.5,69.1,26.4,104.9,36s77.6,9,105.3-15.5c36.1-32,33.2-89,56.3-131.3c21.4-39.3,63.3-62.8,91.5-97.6
		c50.8-62.6,49.1-158.2,6-226.3s-121.2-109.3-201-120c-36-4.8-73.1-4.2-107.7-15.2C555.7,131.3,500.5,26,406,4
		C345.8-9.9,287.4,14.2,236.2,43.9C191.7,69.6,150.7,58.1,104.4,77.3z"/>
	<path class="st1" d="M194.7,283.8c0,0-34.1,32.2-70.8,33.2c-15.4,0.3-30.2,5.6-42.4,15.1c-5.7,4.5-11,9.6-15.8,15.1"/>
	<path class="st2" d="M42.7,347.9c4.9-2.5,23.7-0.8,23.7-0.8s-9.7,16.1-14.7,18.6c-4.8,2.8-10.9,1.2-13.7-3.5
		c-2.8-4.8-1.2-10.9,3.5-13.7C41.9,348.3,42.3,348.1,42.7,347.9L42.7,347.9z"/>
	<path class="st2" d="M62.4,319.4c5.5,0.6,20.4,12.2,20.4,12.2s-17,8.3-22.4,7.7c-5.5-0.8-9.2-5.9-8.4-11.4
		C52.7,322.7,57.3,319.1,62.4,319.4z"/>
	<path class="st2" d="M109.3,296.4c4.4,3.3,11.4,20.8,11.4,20.8s-18.8-1.4-23.2-4.7c-4.3-3.5-5-9.8-1.5-14.1
		C99.2,294.4,105,293.5,109.3,296.4z"/>
	<path class="st2" d="M148.7,286.9c4.9,2.5,14.8,18.6,14.8,18.6s-18.8,1.8-23.7-0.7c-5.1-2.2-7.4-8.1-5.2-13.2
		c2.2-5.1,8.1-7.4,13.2-5.2C148.1,286.6,148.4,286.8,148.7,286.9L148.7,286.9z"/>
	<path class="st2" d="M93.2,349.8c1.6-5.3-3.2-23.5-3.2-23.5s-14.3,12.3-15.9,17.6c-1.9,5.2,0.8,10.9,6,12.8
		c5.2,1.9,10.9-0.8,12.8-6C93.1,350.4,93.1,350.1,93.2,349.8z"/>
	<path class="st2" d="M139.2,338.1c0-5.5-10.1-21.5-10.1-21.5s-9.9,16-9.9,21.5c0,5.5,4.5,10,10,10
		C134.7,348.1,139.2,343.7,139.2,338.1L139.2,338.1L139.2,338.1z"/>
	<path class="st2" d="M182.2,320.8c0.9-5.4-6.3-22.9-6.3-22.9s-12.5,14.1-13.4,19.6c-0.7,5.5,3.2,10.5,8.7,11.1
		C176.4,329.2,181.2,325.8,182.2,320.8L182.2,320.8z"/>
	<path class="st1" d="M239.1,198.5c0,0-41.1-22.6-53.3-57.2c-5-14.5-14.6-27.1-27.4-35.7c-6.1-4-12.5-7.5-19.2-10.4"/>
	<path class="st2" d="M131.3,73.5c3.9,3.9,8.1,22.3,8.1,22.3s-18.4-4.3-22.2-8.2c-3.7-4.1-3.4-10.4,0.7-14.1
		C121.7,70,127.5,70,131.3,73.5z"/>
	<path class="st2" d="M164.6,83.5c1.1,5.4-5.3,23.1-5.3,23.1s-13.1-13.6-14.2-19c-1.4-5.3,1.8-10.8,7.2-12.2
		c5.3-1.4,10.8,1.8,12.2,7.2C164.5,82.9,164.5,83.2,164.6,83.5L164.6,83.5z"/>
	<path class="st2" d="M200.9,121.1c-1.7,5.2-16.3,17.3-16.3,17.3s-4.4-18.3-2.7-23.6c1.7-5.2,7.4-8.1,12.7-6.3
		S202.7,115.9,200.9,121.1L200.9,121.1L200.9,121.1z"/>
	<path class="st2" d="M222,155.7c-0.8,5.4-13.1,19.8-13.1,19.8s-7.5-17.3-6.6-22.8c0.6-5.5,5.5-9.5,11-8.9c5.5,0.6,9.5,5.5,8.9,11
		C222.1,155,222,155.4,222,155.7L222,155.7z"/>
	<path class="st2" d="M145.1,122.2c5.5-0.1,21.4-10.2,21.4-10.2s-16.1-9.8-21.6-9.7c-5.5,0.1-9.9,4.6-9.9,10.1
		C135.1,117.9,139.6,122.3,145.1,122.2L145.1,122.2L145.1,122.2z"/>
	<path class="st2" d="M170.3,162.3c5.2-1.7,17.4-16.2,17.4-16.2s-18.3-4.5-23.6-2.8c-5.3,1.5-8.4,7-6.9,12.4c1.5,5.3,7,8.4,12.4,6.9
		C169.8,162.5,170.1,162.4,170.3,162.3L170.3,162.3z"/>
	<path class="st2" d="M200.1,198c5.5-0.8,19.8-13,19.8-13s-17.3-7.6-22.7-6.8c-5.5,0.6-9.5,5.5-8.9,11s5.5,9.5,11,8.9
		C199.5,198.1,199.8,198.1,200.1,198L200.1,198z"/>
	
		<linearGradient id="SVGID_1_" gradientUnits="userSpaceOnUse" x1="521.9864" y1="27.6009" x2="521.9864" y2="751.6009" gradientTransform="matrix(1 0 0 -1 0 774)">
		<stop  offset="0" style="stop-color:#808080;stop-opacity:0.25"/>
		<stop  offset="0.54" style="stop-color:#808080;stop-opacity:0.12"/>
		<stop  offset="1" style="stop-color:#808080;stop-opacity:0.1"/>
	</linearGradient>
	<circle class="st3" cx="522" cy="384.4" r="362"/>
	<circle class="st2" cx="522" cy="384.4" r="356"/>
	<circle class="st4" cx="522" cy="384.4" r="283"/>
	<rect x="514" y="151.4" class="st5" width="16" height="250"/>
	<g class="st6">
		<rect x="539" y="378.4" width="226" height="20"/>
		<rect x="435.9" y="269.4" transform="matrix(0.4639 -0.8859 0.8859 0.4639 -70.727 582.4553)" width="20" height="160.5"/>
		<circle cx="522" cy="388.4" r="30"/>
	</g>
	<rect x="539" y="374.4" class="st7" width="226" height="20"/>
	
		<rect x="436" y="265.4" transform="matrix(0.4639 -0.8859 0.8859 0.4639 -67.1686 580.3815)" class="st7" width="20" height="160.5"/>
	<circle class="st7" cx="522" cy="384.4" r="30"/>
	<g class="st6">
		<path d="M261,418.4c0-156.3,126.7-283,283-283c88.9-0.1,172.7,41.7,226.2,112.8C722,160.7,629,101.4,522,101.4
			c-156.3,0-283,126.7-283,283c-0.1,61.4,19.9,121.2,56.9,170.2C272.9,512.8,260.9,466,261,418.4z"/>
	</g>
	<path class="st8" d="M624.3,262.9c0,0,22.4,8.2,37,1.8l7.3,0.5c0,0,12.2,8.5,25,4.7"/>
	<path class="st8" d="M730.3,249.2c0,0-3.7,8.7-1.8,11.4"/>
	<path class="st2" d="M963.4,444.3c0,0-41.8,41.8-18.2,103.9c23.6,62.1-40.5,165.3-40.5,165.3s0.7-0.1,2-0.3
		c85.9-15.2,128.6-113.4,80.8-186.5C969.7,499.6,955.1,467.7,963.4,444.3z"/>
	<path class="st9" d="M963.4,445c0,0-41.8,41.8-18.2,103.9c23.6,62.1-40.5,165.3-40.5,165.3s0.7-0.1,2-0.3
		c85.9-15.2,128.6-113.4,80.8-186.5C969.7,500.3,955.1,468.4,963.4,445z"/>
	<path class="st10" d="M963.4,444.3c0,0-23.6,51.3,0,93.1s4,159.2-58.7,176.1"/>
	<path class="st2" d="M1037.9,613.5c0,0-47.7-7.6-52.1,35.2S894,697.4,894,697.4l1.6,1.1c72.2,47.4,141.2,30.2,130.8-32.8
		C1022.6,642.3,1022.9,618.8,1037.9,613.5z"/>
	<path class="st10" d="M1037.9,613.5c0,0-37.1,8.1-34,41.8s-55,74.1-109.9,42.1"/>
	<path class="st11" d="M995.9,698.9c0,0-37.6-7.5-47.6-17.5s-55.2-27.6-60.2-15s-67.7,55.2-25.1,62.7s100.3,10,112.8,5
		S995.9,698.9,995.9,698.9z"/>
	<path class="st12" d="M863,724.4c42.6,7.5,100.3,10,112.8,5c9.6-3.8,16.2-22.2,18.8-30.7l1.2,0.3c0,0-7.5,30.1-20.1,35.1
		s-70.2,2.5-112.8-5c-12.3-2.2-15.8-7.3-14.5-13.7C849.6,719.5,853.9,722.7,863,724.4z"/>
</g>
</svg>
