<?xml version="1.0" encoding="utf-8"?>
<!-- Generator: Adobe Illustrator 25.3.0, SVG Export Plug-In . SVG Version: 6.00 Build 0)  -->
<svg version="1.1" id="a63b68c9-40cd-4f97-89ed-e7d494eb42f9"
	 xmlns="http://www.w3.org/2000/svg" xmlns:xlink="http://www.w3.org/1999/xlink" x="0px" y="0px" viewBox="0 0 742.4 712.6"
	 style="enable-background:new 0 0 742.4 712.6;" xml:space="preserve">
<style type="text/css">
	.st0{fill:#3F3D56;}
	.st1{fill:#FFFFFF;}
	.st2{fill:#E6E6E6;}
	.st3{fill:#F9A826;}
	.st4{fill:#F2F2F2;}
	.st5{fill:#9F616A;}
	.st6{fill:#2F2E41;}
	.st7{fill:#A0616A;}
	.st8{fill:#E5E5E5;}
	.st9{opacity:0.1;enable-background:new    ;}
	.st10{opacity:0.4;fill:#F9A826;}
</style>
<path id="aa38b2e7-2ea9-4025-adcf-83f87c0cfc4a" class="st0" d="M556.6,168.9h-3.9v-107C552.7,27.7,525,0,490.8,0H264.2
	c-34.2,0-61.9,27.7-61.9,61.9c0,0,0,0,0,0v586.9c0,34.2,27.7,61.9,61.9,61.9h226.6c34.2,0,61.9-27.7,61.9-61.9V245h3.9L556.6,168.9z
	"/>
<path id="f27259c2-0089-4137-bfd8-cb22dff914f1" class="st1" d="M540,57.8v595.2c0,25.9-21,46.9-46.9,47H261.8c-25.9,0-47-21-47-47
	V57.8c0-25.9,21-47,47-47h28.1c-4.6,11.4,0.8,24.5,12.3,29.1c2.7,1.1,5.5,1.6,8.4,1.6h131.9c12.3,0,22.3-10,22.3-22.4
	c0-2.9-0.6-5.7-1.6-8.4h30.1C519,10.8,540,31.8,540,57.8L540,57.8z"/>
<path id="a573942c-3bf3-4c43-b474-689725a927f7" class="st2" d="M482.7,403.5H277.1c-2.1,0-3.8-4.4-3.8-9.7V263.4
	c0-5.4,1.7-9.7,3.8-9.7h205.5c2.1,0,3.8,4.4,3.8,9.7v130.3C486.5,399.1,484.8,403.5,482.7,403.5L482.7,403.5z M277.1,257.6
	c-1.3,0-2.3,2.6-2.3,5.8v130.3c0,3.2,1,5.8,2.3,5.8h205.5c1.3,0,2.3-2.6,2.3-5.8V263.4c0-3.2-1-5.8-2.3-5.8H277.1z"/>
<path id="fb5feb1e-1fe2-48fa-806d-0a2b51d12b49" class="st2" d="M340.7,317.9c-1.5,0-2.7,1.2-2.7,2.7c0,1.5,1.2,2.7,2.7,2.7h125.6
	c1.5,0.1,2.7-1.1,2.8-2.6c0.1-1.5-1.1-2.7-2.6-2.8l0,0c0,0-0.1,0-0.1,0L340.7,317.9L340.7,317.9z"/>
<path id="bcb9932f-0864-4b7e-b0ed-f7254bb9b8bf" class="st2" d="M340.7,333.9c-1.5,0-2.7,1.2-2.7,2.7c0,1.5,1.2,2.7,2.7,2.7h125.6
	c1.5,0.1,2.7-1.1,2.8-2.6c0.1-1.5-1.1-2.7-2.6-2.8c0,0-0.1,0-0.1,0L340.7,333.9L340.7,333.9z"/>
<g id="b241f6a5-c54d-499c-8ecd-4235a19d143f">
	<circle id="bfaee8a8-2192-45bf-83cb-a2f223d41a02" class="st3" cx="302.8" cy="328.6" r="16"/>
	<path id="ae47602b-fb54-4e88-955d-49b260f35f7f" class="st2" d="M295.1,325.6c-0.2,0-0.3,1.2-0.3,2.7s0.1,2.7,0.3,2.7h15.7
		c0.2,0,0.3-1.1,0.3-2.6c0.1-0.9,0-1.8-0.3-2.7L295.1,325.6L295.1,325.6z"/>
</g>
<ellipse id="fc31cc31-f989-45cc-bd1e-521a0ee1871b" transform="matrix(0.1602 -0.9871 0.9871 0.1602 155.3343 679.1801)" class="st3" cx="476.8" cy="248.3" rx="44.6" ry="44.6"/>
<rect x="475" y="232.8" transform="matrix(0.7071 -0.7071 0.7071 0.7071 -35.9233 409.8801)" class="st1" width="3.7" height="30.9"/>
<rect x="461.3" y="246.5" transform="matrix(0.7071 -0.7071 0.7071 0.7071 -35.9233 409.8801)" class="st1" width="30.9" height="3.7"/>
<path id="b30ee82f-5b3a-4aa4-9db7-ead828191937" class="st2" d="M740.5,712.6H1.9c-1.1,0-1.9-0.5-1.9-1s0.9-1,1.9-1h738.5
	c1.1,0,1.9,0.5,1.9,1S741.5,712.6,740.5,712.6z"/>
<g id="f24cf2fd-107c-4150-a0f1-6f6b12d88bf3">
	<path id="a2b576eb-bb95-4480-aa60-cd8aa023fe61" class="st2" d="M709.2,671.8c-6.4,2.3-13.5,1-18.8-3.3
		c-6.6-5.5-8.7-14.6-10.3-23.1l-5-24.9l10.4,7.2c7.5,5.2,15.1,10.5,20.3,17.9s7.4,17.7,3.3,25.7"/>
	<path id="fe1c5433-44e0-47a6-8430-329cbd7c4dea" class="st4" d="M707.6,703.7c1.3-9.5,2.7-19.2,1.7-28.8
		c-0.8-8.6-3.4-16.9-8.7-23.8c-2.8-3.6-6.3-6.7-10.2-9.2c-1-0.6-1.9,1-0.9,1.6c6.7,4.3,11.9,10.5,14.9,18c3.2,8.2,3.8,17.2,3.2,26
		c-0.3,5.3-1.1,10.6-1.8,15.8c-0.1,0.5,0.2,1,0.7,1.1C706.9,704.5,707.5,704.2,707.6,703.7L707.6,703.7z"/>
	<path id="f0043cfc-c9b9-4981-8afd-8c13c1b6f93f" class="st2" d="M698.2,688.4c-2.8,4.2-7.5,6.6-12.5,6.4
		c-6.3-0.3-11.6-4.7-16.3-8.9l-14-12.4l9.3-0.4c6.7-0.3,13.5-0.6,19.9,1.4c6.4,2.1,12.2,7,13.4,13.6"/>
	<path id="b883c521-5e9e-4a38-b47c-4f8b0cd8c6cd" class="st4" d="M711.3,709.2c-6.3-11.2-13.6-23.6-26.7-27.5
		c-3.6-1.1-7.4-1.5-11.2-1.2c-1.2,0.1-0.9,1.9,0.3,1.8c6.3-0.5,12.7,1.1,17.9,4.7c5.1,3.4,9,8.2,12.3,13.3c2,3.1,3.9,6.3,5.7,9.6
		C710.2,711,711.9,710.3,711.3,709.2z"/>
</g>
<g>
	<path class="st5" d="M593.1,456.1c5.2-1.9,8-7.6,6.1-12.8c-0.2-0.6-0.4-1.1-0.7-1.6l23.6-26.9l-18.4-2.5l-19.6,25.9
		c-4.7,3.1-5.9,9.3-2.9,14C583.7,456.1,588.7,457.7,593.1,456.1z"/>
	<polygon class="st5" points="621.5,694.2 605,694.2 597.2,630.8 621.5,630.8 	"/>
	<path class="st6" d="M625.7,710.1l-53,0v-0.7c0-11.4,9.2-20.6,20.6-20.6h0l32.4,0L625.7,710.1z"/>
	<polygon class="st5" points="707.5,680.5 691.8,685.3 665.5,627.1 688.7,619.9 	"/>
	<path class="st6" d="M716.2,694.4l-50.6,15.7l-0.2-0.6c-3.4-10.9,2.7-22.4,13.6-25.8l0,0l30.9-9.6L716.2,694.4z"/>
	<path id="ae9bdfa9-f7e0-4b2f-8168-ca8868d01318" class="st2" d="M608.9,401.9l-24.3,27.9l19.1,1.7L608.9,401.9z"/>
	<path id="b88343d2-9c47-4183-8a8a-427a73d8d9be" class="st6" d="M599.4,437.9c0,0-8.5,4.2-9.5,23.3s3.2,68.7,3.2,68.7
		s-4.2,22.2,0,42.3s-4.2,93,1.1,93s32.8,3.2,33.8,0s2.1-50.7,2.1-50.7s8.5-24.3,0-39.1c0,0,29.5,51.5,48.6,90.9
		c4.2,8.6,35.9-1.1,30.6-10.6s-18-52.8-18-52.8s-9.5-31.7-26.4-45.4l8.5-67.6c0,0,18-45.4,7.4-51.8S599.4,437.9,599.4,437.9z"/>
	<circle id="fdc24b21-a9e1-47f2-b2e4-7458730b7c21" class="st7" cx="631.1" cy="238.1" r="27.5"/>
	<path id="ac268c91-41f4-49c7-bce6-773e5eb69fa2" class="st8" d="M661.7,267.7l-34.2,20.1c0,0-13.1,7.4-18,20.1
		c-5.2,13.5-2.2,32.6,0,37c4.2,8.5-1.8,29.6-1.8,29.6l-5.3,48.6c0,0-19,18-4.2,20.1s41.2-1.1,57.1,0c15.9,1.1,33.8,3.2,28.5-7.4
		s-11.6-18-5.3-39.1c5-16.5,4.7-78.4,4.4-104.5c-0.1-7.3-4-14-10.2-17.8L661.7,267.7z"/>
	<path id="aebed2c8-94ca-417e-8b11-27e17cbf3024" class="st9" d="M645.7,303.6l-62.3-16.7l-49.8-48.3l3.5-4.4l45.6,48L645.7,303.6z"
		/>
	<path id="e13ea0c4-bc86-4025-9528-1665a42d3372" class="st9" d="M681.3,379.2v-7.4L645.4,431L681.3,379.2z"/>
	<path id="eb3190ba-6b3f-4b2b-91d1-1543e580b413" class="st6" d="M611.6,212.7l-4.5-1.8c0,0,9.5-10.5,22.7-9.5l-3.7-4.1
		c0,0,9.1-3.6,17.3,5.9c4.3,5,9.4,10.9,12.5,17.6h4.9l-2,4.5l7.1,4.5l-7.3-0.8c0.7,3.9,0.5,7.8-0.7,11.6l0.2,3.5
		c0,0-8.5-13.1-8.5-14.9v4.5c0,0-4.5-4.1-4.5-6.8l-2.5,3.2l-1.2-5l-15.3,5l2.5-4.1l-9.5,1.4l3.7-5c0,0-10.7,5.9-11.1,10.9
		c-0.4,5-5.8,11.4-5.8,11.4l-2.5-4.5C603.3,240,599.6,219.5,611.6,212.7z"/>
	<path class="st5" d="M500.4,238.9c1.1,5.4,6.5,8.9,11.9,7.8c0.6-0.1,1.1-0.3,1.7-0.5l23.5,26.9l5-17.9l-23.1-22.8
		c-2.4-5-8.5-7.1-13.5-4.7C501.7,229.7,499.4,234.3,500.4,238.9L500.4,238.9z"/>
	<path id="a62f6567-f472-4931-86f9-ff652851a370" class="st8" d="M656.7,333.2l-0.9,8c0,0-23.9,17.3-54.8-0.4
		c-30.9-17.7-71.2-65.1-71.2-65.1s-6.8-10-8.2-12.6s1.9-6-1.7-5c-3.7,1-4.1-4.6-4.1-4.6s7.1-22.1,14.5-17.5
		c7.4,4.6,53.7,57.3,53.7,57.3l54.9,12.1C639,305.3,666.5,309.7,656.7,333.2z"/>
</g>
<g>
	
		<rect x="203.8" y="61.8" transform="matrix(0.7071 -0.7071 0.7071 0.7071 -164.891 263.7394)" class="st10" width="64.3" height="538.2"/>
	
		<rect x="-33.2" y="298.8" transform="matrix(0.7071 -0.7071 0.7071 0.7071 -164.891 263.7393)" class="st10" width="538.2" height="64.3"/>
</g>
</svg>
