<?xml version="1.0" encoding="utf-8"?>
<!-- Generator: Adobe Illustrator 25.3.0, SVG Export Plug-In . SVG Version: 6.00 Build 0)  -->
<svg version="1.1" id="_x30_315a8ac-3017-4957-93c4-92e478eebb20"
	 xmlns="http://www.w3.org/2000/svg" xmlns:xlink="http://www.w3.org/1999/xlink" x="0px" y="0px" viewBox="0 0 1036 612"
	 style="enable-background:new 0 0 1036 612;" xml:space="preserve">
<style type="text/css">
	.st0{fill:#F9A826;}
	.st1{fill:none;stroke:#535461;stroke-width:1.5758;stroke-miterlimit:10;}
	.st2{opacity:0.2;fill:#F5F5F5;enable-background:new    ;}
	.st3{opacity:0.2;fill:#F9A826;enable-background:new    ;}
	.st4{fill:#F5F5F5;}
	.st5{fill:url(#SVGID_1_);}
	.st6{fill:#535461;}
	.st7{fill:#FFFFFF;}
	.st8{fill:url(#SVGID_2_);}
	.st9{fill:url(#SVGID_3_);}
	.st10{fill:none;stroke:#535461;stroke-width:2;stroke-miterlimit:10;}
	.st11{fill:#DDDBE2;}
</style>
<path class="st0" d="M941.6,238.5c0,0-28.2,28.2-12.3,70.1c15.9,41.9-27.3,111.6-27.3,111.6s0.5-0.1,1.3-0.2
	c58-10.2,86.8-76.6,54.6-125.8C945.9,275.8,936,254.3,941.6,238.5z"/>
<path class="st1" d="M941.6,238.5c0,0-15.9,34.6,0,62.8s2.7,107.5-39.6,118.8"/>
<path class="st0" d="M991.9,352.7c0,0-32.2-5.1-35.1,23.7c-2.9,28.9-61.9,32.9-61.9,32.9l1.1,0.7c48.7,32,95.3,20.4,88.2-22.1
	C981.5,372.1,981.8,356.3,991.9,352.7z"/>
<path class="st2" d="M991.9,352.7c0,0-32.2-5.1-35.1,23.7c-2.9,28.9-61.9,32.9-61.9,32.9l1.1,0.7c48.7,32,95.3,20.4,88.2-22.1
	C981.5,372.1,981.8,356.3,991.9,352.7z"/>
<path class="st1" d="M991.9,352.7c0,0-25,5.5-23,28.2c2.1,22.7-37.1,50-74.1,28.4"/>
<path class="st3" d="M151.4,0.1c-8.1-0.2-16.3,0-23.9,2.3c-20.6,6.3-30.3,27-27.1,44.9s16.2,33.4,29.7,47.7s28.2,28.3,35.6,45.3
	c3.7,8.5,5.4,18,1.7,26.5c-5.8,13.1-23.3,20.4-40.1,21.9s-33.6-1.4-50.5-2.4c-7.1-0.4-14.3-0.5-21,1.5c-7.3,2.1-13.4,6.3-19,10.8
	c-21.8,17.4-39.3,41.1-36.5,66c3.2,28.2,31.7,50.5,63,62.5c10.4,4,21.3,7.2,30.4,12.8c24,14.9,29.4,42.9,27,67.6s-10.5,49.5-6,73.9
	c5.3,28.5,28.9,54.2,60.7,66.2c28.4,10.7,63.8,10,89-5.1c12.3-7.4,21.5-17.6,29.6-28.2c12-15.7,21.9-32.8,29.5-51
	c3.5-8.5,6.8-17.6,15-23.5c5-3.6,11.5-5.7,17.9-7.2c19.3-4.8,39.7-6.1,59.2-10.3s39.1-12.2,49.7-26.3c15-20,8-45.6,8.1-69.1
	c0.1-53.7,39.1-101.7,53.5-154c4.7-17.1,6.5-36-4-51.2c-7.1-10.4-19.2-17.8-31.8-23.6c-27.8-12.7-59.4-18.3-90.5-23.8
	c-43.2-7.6-95.7-8.6-129.2-33.4C239.2,17,195.2,0.1,151.4,0.1z"/>
<ellipse class="st4" cx="571" cy="487.5" rx="465" ry="124.5"/>
<linearGradient id="SVGID_1_" gradientUnits="userSpaceOnUse" x1="675.05" y1="8" x2="675.05" y2="373.72" gradientTransform="matrix(1 0 0 -1 -82 470)">
	<stop  offset="0" style="stop-color:#808080;stop-opacity:0.25"/>
	<stop  offset="0.54" style="stop-color:#808080;stop-opacity:0.12"/>
	<stop  offset="1" style="stop-color:#808080;stop-opacity:0.1"/>
</linearGradient>
<path class="st5" d="M926.4,419.9h-64.2c1.5-3,2.2-6.2,2.2-9.6V117.8c0-11.9-9.6-21.5-21.5-21.5l0,0H345.5
	c-11.9,0-21.5,9.6-21.5,21.5c0,0,0,0,0,0v292.6c0,3.3,0.8,6.6,2.2,9.6h-66.5c-3.1,0-5.7,2.5-5.7,5.7l0,0v4.6
	c0,17.6,14.3,31.8,31.8,31.8h614.4c17.6,0,31.8-14.2,31.8-31.8l0,0v-4.6C932,422.5,929.5,419.9,926.4,419.9z M530.5,438.1l-5.5-6.2
	h136.7l-6.1,6.3L530.5,438.1z"/>
<path class="st6" d="M353.4,100.4H835c12.8,0,23.3,10.4,23.3,23.3v281.5c0,12.8-10.4,23.3-23.3,23.3H353.4
	c-12.8,0-23.3-10.4-23.3-23.3V123.7C330.1,110.8,340.5,100.4,353.4,100.4z"/>
<rect x="341.2" y="148.2" class="st7" width="504.8" height="268"/>
<circle class="st7" cx="593.6" cy="124.9" r="4.5"/>
<path class="st6" d="M671.5,416.7l-17.3,17.8H531.9l-15.7-17.8H267.3c-3.1,0-5.6,2.5-5.6,5.6v4.5c0,17.2,13.9,31.1,31.1,31.1h600.5
	c17.2,0,31.1-13.9,31.1-31.1v-4.5c0-3.1-2.5-5.6-5.6-5.6L671.5,416.7z"/>
<linearGradient id="SVGID_2_" gradientUnits="userSpaceOnUse" x1="473.945" y1="-21.61" x2="473.945" y2="312.35" gradientTransform="matrix(1 0 0 -1 -82 470)">
	<stop  offset="0" style="stop-color:#808080;stop-opacity:0.25"/>
	<stop  offset="0.54" style="stop-color:#808080;stop-opacity:0.12"/>
	<stop  offset="1" style="stop-color:#808080;stop-opacity:0.1"/>
</linearGradient>
<path class="st8" d="M498.4,157.6H285.5c-10.8,0-19.5,8.7-19.5,19.5v295c0,10.8,8.8,19.5,19.5,19.5h212.9c10.8,0,19.5-8.7,19.5-19.5
	v-295C517.9,166.4,509.2,157.6,498.4,157.6z"/>
<path class="st6" d="M288.9,161.6h206c11,0,20,9,20,20v287c0,11-9,20-20,20h-206c-11,0-20-9-20-20v-287
	C268.9,170.6,277.9,161.6,288.9,161.6z"/>
<rect x="281.4" y="192.6" class="st7" width="221" height="265.1"/>
<circle class="st7" cx="390.9" cy="176.6" r="3"/>
<circle class="st7" cx="390.9" cy="472.6" r="9"/>
<linearGradient id="SVGID_3_" gradientUnits="userSpaceOnUse" x1="363.445" y1="-48.65" x2="363.445" y2="212.35" gradientTransform="matrix(1 0 0 -1 -82 470)">
	<stop  offset="0" style="stop-color:#808080;stop-opacity:0.25"/>
	<stop  offset="0.54" style="stop-color:#808080;stop-opacity:0.12"/>
	<stop  offset="1" style="stop-color:#808080;stop-opacity:0.1"/>
</linearGradient>
<path class="st9" d="M336.1,257.6H226.8c-6,0-10.8,4.8-10.8,10.8v0v239.4c0,6,4.9,10.8,10.8,10.8l0,0h109.3c6,0,10.8-4.8,10.8-10.8
	l0,0V268.4C346.9,262.5,342.1,257.6,336.1,257.6L336.1,257.6z"/>
<path class="st6" d="M227.9,259.6h107c6.1,0,11,4.9,11,11v236c0,6.1-4.9,11-11,11h-107c-6.1,0-11-4.9-11-11v-236
	C216.9,264.6,221.9,259.6,227.9,259.6z"/>
<rect x="226.4" y="283.6" class="st7" width="110" height="210"/>
<circle class="st7" cx="268.4" cy="271.6" r="1"/>
<path class="st7" d="M274.4,270.6h20c0.6,0,1,0.4,1,1l0,0c0,0.6-0.4,1-1,1h-20c-0.6,0-1-0.4-1-1l0,0
	C273.4,271.1,273.9,270.6,274.4,270.6z"/>
<circle class="st7" cx="280.9" cy="503.6" r="7"/>
<path class="st10" d="M203.7,536.2c0,0-13.3-45,2.5-78.1c6.7-13.9,8.7-29.5,5.8-44.6c-1.5-7.2-3.6-14.2-6.3-20.9"/>
<path class="st0" d="M215.5,371.6c0,5.5-10,21.5-10,21.5s-10-16-10-21.5c0-5.5,4.5-10,10-10S215.5,366.1,215.5,371.6z"/>
<path class="st0" d="M232,402.2c-3,4.6-20.1,12.6-20.1,12.6s0.3-18.9,3.3-23.5c2.8-4.8,8.9-6.4,13.7-3.6s6.4,8.9,3.6,13.7
	C232.3,401.7,232.2,401.9,232,402.2z"/>
<path class="st0" d="M231.2,454.4c-4.9,2.5-23.7,0.8-23.7,0.8s9.8-16.1,14.7-18.6c5-2.3,11,0,13.2,5
	C237.6,446.3,235.8,451.9,231.2,454.4L231.2,454.4z"/>
<path class="st0" d="M221.8,493.8c-4.4,3.3-23.2,4.8-23.2,4.8s6.9-17.5,11.4-20.8c4.6-3.1,10.8-1.8,13.9,2.8
	C226.6,484.8,225.8,490.5,221.8,493.8z"/>
<path class="st0" d="M190.9,415.9c4,3.8,22.4,7.8,22.4,7.8s-4.5-18.3-8.5-22.2c-3.8-4-10.1-4.2-14.1-0.5s-4.2,10.1-0.5,14.1
	C190.5,415.5,190.7,415.7,190.9,415.9L190.9,415.9z"/>
<path class="st0" d="M180.5,462.1c4.9,2.5,23.7,0.8,23.7,0.8s-9.8-16.1-14.7-18.6c-4.8-2.7-10.9-1-13.6,3.8
	c-2.7,4.8-1,10.9,3.8,13.6C179.9,461.9,180.2,462,180.5,462.1L180.5,462.1z"/>
<path class="st0" d="M176.5,508.4c4.4,3.3,23.2,4.8,23.2,4.8s-6.9-17.5-11.4-20.8c-4.6-3.1-10.8-1.8-13.9,2.8
	C171.6,499.4,172.5,505.1,176.5,508.4z"/>
<path class="st11" d="M716.5,536c0,0.1-0.1,0.2-0.1,0.3c-0.7,1.7-1.2,3.5-1.6,5.3c0.2-0.8,0.5-1.6,0.8-2.4
	C716.1,538.2,716.4,537.1,716.5,536z"/>
<path class="st11" d="M621.4,542.4c-0.5,0.1-1,0.8-1.5,1.8l0.2-0.1c0.4-0.1,1.2-1,2.1-2.3C622,542.1,621.7,542.3,621.4,542.4z"/>
</svg>
