<?xml version="1.0" encoding="utf-8"?>
<!-- Generator: Adobe Illustrator 25.3.0, SVG Export Plug-In . SVG Version: 6.00 Build 0)  -->
<svg version="1.1" id="bfca6550-aec3-4c0b-b342-e4bc13b78253"
	 xmlns="http://www.w3.org/2000/svg" xmlns:xlink="http://www.w3.org/1999/xlink" x="0px" y="0px" viewBox="0 0 700.5 497.5"
	 style="enable-background:new 0 0 700.5 497.5;" xml:space="preserve">
<style type="text/css">
	.st0{fill:#E6E6E6;}
	.st1{fill:#3F3D56;}
	.st2{fill:#F9A826;}
	.st3{fill:#FFFFFF;}
</style>
<ellipse class="st0" cx="40.9" cy="398.4" rx="29.1" ry="59.4"/>
<path class="st1" d="M43.6,495.6c-11.7-69.9-0.1-139.6,0-140.3l2.3,0.4c-0.1,0.7-11.6,70,0,139.5L43.6,495.6z"/>
<rect x="39" y="392.5" transform="matrix(0.8818 -0.4717 0.4717 0.8818 -179.3044 71.9486)" class="st1" width="29.8" height="2.3"/>
<rect x="25" y="385.8" transform="matrix(0.4719 -0.8816 0.8816 0.4719 -339.5097 234.6331)" class="st1" width="2.3" height="29.8"/>
<rect x="580.1" y="73.7" class="st1" width="47.7" height="165.1"/>
<polygon class="st1" points="659.2,207.7 543.2,69.7 310.4,71.8 169.2,209.4 172,211.3 171,211.3 171,497.4 658.9,497.4 
	658.9,211.3 "/>
<polygon class="st2" points="543.4,70 398.5,239.9 398.5,497.4 658.9,497.4 658.9,207.6 "/>
<rect x="503" y="355" class="st1" width="53.2" height="47"/>
<rect x="503" y="273.6" class="st1" width="53.2" height="46.3"/>
<rect x="503" y="355" class="st3" width="53.2" height="47"/>
<rect x="503" y="273.6" class="st3" width="53.2" height="46.3"/>
<path class="st0" d="M362.3,489c0,0,1.1-23.9,24.5-21.1"/>
<circle class="st2" cx="355.7" cy="454.6" r="11.7"/>
<rect x="353.8" y="474.3" class="st0" width="3.3" height="23.1"/>
<ellipse class="st2" cx="105.8" cy="236.9" rx="77.9" ry="158.9"/>
<path class="st1" d="M114.8,496.7c-31.1-186.8-0.3-373,0-374.9l2.3,0.4c-0.3,1.9-31.1,187.6,0,374.1L114.8,496.7z"/>
<rect x="100.6" y="223.1" transform="matrix(0.8818 -0.4717 0.4717 0.8818 -89.1728 92.8108)" class="st1" width="79.9" height="2.3"/>
<rect x="65.1" y="203.2" transform="matrix(0.4719 -0.8817 0.8817 0.4719 -179.4231 186.8139)" class="st1" width="2.3" height="79.9"/>
<rect x="-140" y="495.5" class="st1" width="840.5" height="2"/>
<rect x="266.6" y="342.5" class="st1" width="53.2" height="47"/>
<rect x="266.6" y="261.2" class="st1" width="53.2" height="46.3"/>
<rect x="266.6" y="342.5" class="st3" width="53.2" height="47"/>
<rect x="266.6" y="261.2" class="st3" width="53.2" height="46.3"/>
</svg>
