<?xml version="1.0" encoding="utf-8"?>
<!-- Generator: Adobe Illustrator 25.3.0, SVG Export Plug-In . SVG Version: 6.00 Build 0)  -->
<svg version="1.1" id="e048613e-aa78-44fc-a819-d6e20e102ddb"
	 xmlns="http://www.w3.org/2000/svg" xmlns:xlink="http://www.w3.org/1999/xlink" x="0px" y="0px" viewBox="0 0 852 663.8"
	 style="enable-background:new 0 0 852 663.8;" xml:space="preserve">
<style type="text/css">
	.st0{fill:#F0F0F0;}
	.st1{fill:#FFFFFF;}
	.st2{fill:#3F3D56;}
	.st3{fill:#F9A826;}
	.st4{fill:#E4E4E4;}
	.st5{fill:#F2F2F2;}
	.st6{fill:#A0616A;}
	.st7{fill:#2F2E41;}
</style>
<path class="st0" d="M249.7,554.8l-0.1-15.2l-1.3-225.8l-0.1-8.4l-0.7-124.3c-11.1-7-22.7-13.1-34.6-18.5
	c-46.9-20.8-102.7-29.3-148.9-7C39.3,168,20.2,189.2,10.5,215c-0.3,0.7-0.5,1.3-0.8,2c-7.7,22-7.6,45.8,3.6,66.4
	c20.2,37,65.3,50.7,105.4,63.8c40.1,13.1,84.5,34.3,94.5,75.3c-26.2-32.2-73.5-37-105.6-10.9c-10.7,8.7-18.8,20.2-23.4,33.2
	c-0.7,2-1.4,4.1-2,6.2c-1.4,5-2.2,10.2-2.5,15.4c-2,39.7,28.5,75.3,64.6,91.9c32.7,15,69.3,17.9,105.4,19.4L249.7,554.8z"/>
<path class="st1" d="M249.6,539.6l0.1,15.2c-16.3-41.9-49.1-75.3-90.7-92.4c-24.3-9.8-50.6-13.7-76.7-11.4c0.6-2.1,1.3-4.2,2-6.2
	c10.1-0.7,20.3-0.6,30.4,0.5c36.1,3.7,70,18.9,96.8,43.3C227.3,503.1,240.2,520.4,249.6,539.6z"/>
<path class="st1" d="M248.2,305.3l0.1,8.4c-8.5-8.2-17.6-15.6-27.3-22.2c-30.1-20.7-64.2-36.4-98.7-48.2
	c-35.4-12.1-72.2-19.8-109.4-23c-1.7-0.2-3.1-1.7-3-3.4c0-0.7,0.2-1.5,0.8-2c0.5-0.5,1.3-0.7,2-0.6c4.6,0.4,9.2,0.8,13.8,1.3
	c38.2,4.3,75.6,13.3,111.6,26.9c34.7,13,69,29.9,98.3,52.7C240.3,298.5,244.3,301.8,248.2,305.3z"/>
<circle class="st0" cx="48.8" cy="104.8" r="12.8"/>
<path class="st2" d="M572.3,157.7h-3.6V57.8c0-31.9-25.9-57.8-57.8-57.8H299.1c-31.9,0-57.8,25.9-57.8,57.8v548.1
	c0,31.9,25.9,57.8,57.8,57.8h211.7c31.9,0,57.8-25.9,57.8-57.8V228.9h3.6V157.7z"/>
<path class="st1" d="M556.3,58.2v547.3c0,0.8,0,1.6-0.1,2.4c-1.3,22.9-20.2,40.8-43.1,40.8H300.4c-23,0-41.9-18-43.1-41
	c0-0.7-0.1-1.5-0.1-2.2V58.2c0-23.9,19.3-43.2,43.2-43.2h25.8c-4.3,10.5,0.8,22.5,11.2,26.7c2.5,1,5.1,1.5,7.7,1.5h121.3
	c11.3,0,20.5-9.2,20.5-20.5c0-2.7-0.5-5.3-1.5-7.7h27.6C537,15,556.3,34.4,556.3,58.2z"/>
<path class="st0" d="M552.4,471H261.2c-2.1,0-3.9-1.7-3.9-3.9V109.9c0-2.1,1.7-3.9,3.9-3.9h291.2c2.1,0,3.9,1.7,3.9,3.9v357.3
	C556.2,469.3,554.5,471,552.4,471z"/>
<path class="st1" d="M531,130.9H283.1c-2.1,0-3.9,1.7-3.9,3.9V393c0,2.1,1.7,3.8,3.9,3.9H531c2.1,0,3.9-1.7,3.9-3.9V134.8
	C534.9,132.7,533.1,130.9,531,130.9z"/>
<circle class="st3" cx="278.8" cy="83" r="10"/>
<path class="st0" d="M326.4,409.5c-17.1-27.5-11.2-62.6-8.3-94.9c4.3-48.4,0.4-97.1-11.5-144.2c14.1,15.8,23.5,35.3,26.9,56.2
	c2.8,17.5,1.4,35.4,4.6,52.8c6.8,37.3,34.4,70.9,30.2,108.6c-0.9,8.3-4.1,17.3-11.5,21.2c-8.3,4.5-18.5,0.9-27.3-2.7"/>
<path class="st3" d="M463.3,90.8h-141c-4.3,0-7.7-3.4-7.7-7.7c0-4.3,3.4-7.7,7.7-7.7c0,0,0,0,0,0h141c4.3,0,7.7,3.4,7.7,7.7
	C471,87.4,467.6,90.8,463.3,90.8C463.3,90.8,463.3,90.8,463.3,90.8z"/>
<path class="st0" d="M552.4,538H261.2c-2.1,0-3.9,1.7-3.9,3.9v65.9c1.2,23,20.1,41,43.1,41h212.7c22.9,0,41.9-17.9,43.1-40.8v-66.1
	C556.2,539.7,554.5,538,552.4,538z"/>
<path class="st1" d="M531,562.9H283.1c-2.1,0-3.9,1.7-3.9,3.9v76.4c6.5,3.6,13.7,5.5,21.1,5.5h212.7c7.6,0,15.2-2,21.8-5.9v-76.1
	C534.9,564.7,533.1,562.9,531,562.9z"/>
<circle class="st4" cx="278.8" cy="515" r="10"/>
<path class="st4" d="M463.3,522.8h-141c-4.3,0-7.7-3.4-7.7-7.7c0-4.3,3.4-7.7,7.7-7.7c0,0,0,0,0,0h141c4.3,0,7.7,3.4,7.7,7.7
	C471.1,519.4,467.6,522.8,463.3,522.8C463.3,522.8,463.3,522.8,463.3,522.8z"/>
<path class="st5" d="M383.6,648.7h-73.3c7.5-14.7,21.2-26.6,37.5-27.3c2.4-0.1,4.9,0.1,7.3,0.5c1,0.2,2,0.4,3,0.7
	C370.8,625.9,380.6,636,383.6,648.7z"/>
<path class="st5" d="M500.8,648.7h-99.5c1.5-4.6,2.8-9.2,3.9-13.9c4.5-19.3,9-41,25.5-52c9.2-6.1,20.4-7.1,30.9-4.4
	c0.3,0.1,0.7,0.2,1,0.3c12.5,3.5,23.2,11.5,30,22.5C501.1,615.4,502.9,632.2,500.8,648.7z"/>
<path class="st1" d="M359.1,636.9c0,4-0.4,7.9-1,11.8h-2.9c1.5-8.8,1.5-17.9-0.1-26.7c1,0.2,2,0.4,3,0.7
	C358.8,627.4,359.2,632.2,359.1,636.9z"/>
<path class="st1" d="M463,579.6c0,2.2,0,4.3-0.1,6.5c-0.4,18-3.1,36-8,53.3c-0.9,3.1-1.8,6.2-2.8,9.3h-2.9c1.8-5.5,3.4-11,4.7-16.6
	c4.2-17.1,6.3-34.6,6.2-52.2c0-0.8,0.7-1.5,1.5-1.5c0.3,0,0.7,0.1,1,0.3C462.9,578.9,463,579.3,463,579.6z"/>
<circle class="st5" cx="515.8" cy="592.1" r="6"/>
<circle class="st3" cx="372" cy="154.2" r="6"/>
<circle class="st4" cx="483" cy="189.2" r="6"/>
<circle class="st4" cx="480" cy="311.2" r="6"/>
<path class="st6" d="M657,436.7c0.3-6.5,5.9-11.6,12.4-11.3c0.7,0,1.4,0.1,2.1,0.3l15.7-22.1l15.7,6.2l-22.5,30.8
	c-1.9,6.3-8.5,9.9-14.8,8C660.2,447.2,656.7,442.2,657,436.7L657,436.7z"/>
<path class="st2" d="M674.1,417.7l27.8-46.8l-11.3-30.2l15.4-41.2l0.6,0.2c0.4,0.2,9.1,4.1,10.5,18.1l17.8,55.8l-47.4,61.5
	L674.1,417.7z"/>
<path class="st6" d="M522.9,245.6c6.5,0.8,11.1,6.7,10.3,13.2c-0.1,0.7-0.2,1.4-0.4,2l20.8,17.3l-7.4,15.2l-29-24.9
	c-6.1-2.4-9.2-9.2-6.8-15.4C512.3,248,517.5,244.9,522.9,245.6L522.9,245.6z"/>
<path class="st2" d="M540.5,264.2l44.5,31.4l31-9l39.9,18.6l-0.3,0.5c-0.2,0.4-4.8,8.8-18.9,9l-57,13.4l-57.6-52L540.5,264.2z"/>
<polygon class="st6" points="622,645.7 606.5,645.7 599.2,586 622,586 "/>
<path class="st7" d="M590.8,641.3h34.5l0,0v18.8l0,0h-48.6l0,0v-4.7C576.7,647.6,583,641.3,590.8,641.3L590.8,641.3z"/>
<polygon class="st6" points="683.9,645.7 668.4,645.7 661,586 683.9,586 "/>
<path class="st7" d="M652.7,641.3h34.5l0,0v18.8l0,0h-48.6l0,0v-4.7C638.5,647.6,644.9,641.3,652.7,641.3L652.7,641.3z"/>
<polygon class="st7" points="689.4,427.8 688.1,516.2 686.9,632.3 659.1,629.8 645.2,469.4 627.5,629.8 598.8,629.8 596,468.2 
	606.1,432.8 "/>
<path class="st2" d="M603.3,433.4l-4.2-0.2l19.7-108.3l-8-32.7c-0.9-3.5,1-7.1,4.4-8.4l14.5-5.4l5.1-14.1l40.4,4.3l1,11
	c4.4,1.4,40.4,13.4,37.9,27.1c-2.5,13.5-16.9,55.9-17.7,58.1l-2.5,60.9l-0.3,0.2c-0.4,0.2-28.2,13.9-58.4,13.9
	C624.4,439.6,613.4,437.9,603.3,433.4z"/>
<circle class="st6" cx="653.3" cy="228.2" r="29.1"/>
<path class="st7" d="M676.8,256.4c-5.5,5.9-15.8,2.7-16.5-5.3c-0.1-0.6-0.1-1.3,0-1.9c0.4-3.6,2.4-6.8,1.9-10.6
	c-0.1-0.9-0.5-1.8-1-2.6c-4.4-5.9-14.8,2.6-18.9-2.7c-2.6-3.3,0.4-8.4-1.5-12.1c-2.6-4.8-10.2-2.5-15.1-5.1
	c-5.3-2.9-5-11.2-1.5-16.1c4.3-6.1,11.8-9.3,19.2-9.8s14.8,1.5,21.7,4.2c7.9,3.1,15.7,7.3,20.5,14.2c5.9,8.4,6.5,19.8,3.5,29.6
	C687.5,244.2,681.4,251.6,676.8,256.4z"/>
<path class="st2" d="M851,662H1c-0.6,0-1-0.4-1-1s0.4-1,1-1h850c0.6,0,1,0.4,1,1S851.6,662,851,662z"/>
</svg>
