<?xml version="1.0" encoding="utf-8"?>
<!-- Generator: Adobe Illustrator 25.3.0, SVG Export Plug-In . SVG Version: 6.00 Build 0)  -->
<svg version="1.1" id="be28e94a-a741-4114-8acd-d9c68c81d985"
	 xmlns="http://www.w3.org/2000/svg" xmlns:xlink="http://www.w3.org/1999/xlink" x="0px" y="0px" viewBox="0 0 664 481.5"
	 style="enable-background:new 0 0 664 481.5;" xml:space="preserve">
<style type="text/css">
	.st0{fill:#E6E6E6;}
	.st1{fill:#FFFFFF;}
	.st2{fill:#F9A826;}
	.st3{fill:#E4E4E4;}
	.st4{fill:#FFB6B6;}
	.st5{fill:#3F3D56;}
	.st6{fill:#2F2E41;}
	.st7{fill:#D0CDE1;}
	.st8{font-family:'MyriadPro-Bold';}
	.st9{font-size:32px;}
</style>
<rect id="ed526203-2362-4a43-96ca-450f4725da7a" x="119.8" y="48.5" class="st0" width="529" height="251"/>
<rect id="bc241c52-ebb2-41fa-9574-d106f872c1dd" x="134.9" y="70" class="st1" width="498.8" height="209.4"/>
<rect id="bf2b7fee-aafd-4163-88e6-719b489e53a8" x="119.5" y="34" class="st2" width="529" height="22.5"/>
<circle id="bcccbf37-d4b5-4127-83d7-1cbb700c027e" class="st1" cx="136.2" cy="44.4" r="4.2"/>
<circle id="a113f3b2-577f-43f8-9adc-c82fb7c016a2" class="st1" cx="152" cy="44.4" r="4.2"/>
<circle id="b270d923-4b8c-4c85-892d-857a2ab12939" class="st1" cx="167.9" cy="44.4" r="4.2"/>
<path class="st3" d="M316,234.8H209.7c-4.1,0-7.4-9.8-7.4-21.9c0-12.1,3.3-21.9,7.4-21.9H316c4.1,0,7.4,9.8,7.4,21.9
	C323.4,225.1,320.1,234.8,316,234.8L316,234.8z"/>
<path class="st3" d="M524.8,234.8H393.2c-5.1,0-9.2-9.8-9.2-21.9c0-12.1,4.1-21.9,9.2-21.9h131.6c5.1,0,9.2,9.8,9.2,21.9
	C534,225.1,529.9,234.8,524.8,234.8L524.8,234.8z"/>
<path class="st4" d="M127.4,268.4c-3.8-2.7-9.1-1.7-11.8,2.1c-0.3,0.4-0.5,0.8-0.7,1.3L95.6,271l-3.3,11.6l27.3,0.7
	c4.4,1.7,9.3-0.5,11-4.9C131.9,274.7,130.6,270.6,127.4,268.4L127.4,268.4z"/>
<path class="st3" d="M111.9,284.8l-19.7,2.5l-2.5,0.3l-40,5c0,0-12.3-8.8-23.2-18.2v-9.8c0-9.6,3.5-18.8,9.8-26
	c14.8,7.2,25.1,24,25.1,24l25.6,2.5l2.6,0.2l15.9,1.5L111.9,284.8z"/>
<path class="st5" d="M30.1,363.1h37c0,1.6,40.4,2.9,40.4,2.9c0.9,0.7,1.7,1.4,2.4,2.3c2.2,2.6,3.3,5.8,3.3,9.2v2.3
	c0,7.9-6.4,14.4-14.4,14.4H30.1c-7.9,0-14.4-6.4-14.4-14.4v-2.3C15.7,369.6,22.2,363.1,30.1,363.1z"/>
<rect x="57" y="393.6" class="st5" width="14.9" height="86.2"/>
<path class="st5" d="M114.4,479.3c0,1.6-22.6,0.6-50.6,0.6s-50.6,1-50.6-0.6s22.6-14.4,50.6-14.4S114.4,477.7,114.4,479.3z"/>
<polygon class="st4" points="124.5,469.4 135.6,469.4 140.9,426.5 124.5,426.5 "/>
<path class="st6" d="M121.6,465.8l21.9,0h0c7.7,0,13.9,6.2,14,14v0.5l-35.8,0L121.6,465.8z"/>
<polygon class="st4" points="157.3,469.4 168.4,469.4 173.7,426.5 157.3,426.5 "/>
<path class="st6" d="M154.5,465.8l21.9,0h0c7.7,0,13.9,6.2,14,14v0.5l-35.8,0L154.5,465.8z"/>
<circle class="st4" cx="64.1" cy="203.3" r="19.3"/>
<path class="st6" d="M66.2,194c0,0,6.9-9.6,13.3,0s12.7-2,11.3-5.7s-1.1-4.1-11.8-8.8s-31.2-14.2-37.2,9.4s6.3,24.1,6.3,24.1
	s2.5-22.9,5.4-16.5l2.9,6.5l3,1.1L66.2,194z"/>
<path class="st6" d="M26.5,335.7c0,0-6.5,34.3,18.2,38.7s60.3,7.4,60.3,7.4l16,74.6l21.5-1.9c0,0-2.9-89.8-9.9-96.9
	s-51.4-28.1-51.4-28.1L26.5,335.7z"/>
<path class="st6" d="M74.7,321.3l10.8,10.8c0,0,77.9,12.6,80.9,30.5c4.5,27.2,9.9,86.3,9.9,86.3l-23.4-1.8l-9.2-67.2l-37.5-8.5
	l-42.6-23.2L74.7,321.3z"/>
<path class="st3" d="M84.1,330.5c0,0-60.2,23.6-58.9,9.7c1.5-16.1,1.2-23.1,1.2-23.1v-52.6c0-14.6,8.1-28.1,21-35l20.3,0.3l6.3,8.3
	c5,25.3,6,28.3,6,28.3l4.2,11.5l0.9,7.2l-3.1,15.3L84.1,330.5z"/>
<path class="st2" d="M133.5,268.4l-0.1,0l2-6.4c0.6-2,0.3-3.9-0.7-4.3l0,0l-6.9-2.1c-1-0.3-2.4,1.1-3,3.1l0,0l-10.8,34.9
	c-0.6,2-0.3,3.9,0.7,4.3l0,0l6.9,2.1c1,0.3,2.4-1.1,3-3.1l0,0l7.5-24l0.1,0L133.5,268.4z"/>
<path class="st5" d="M134.5,269.4l-0.1,0l2-6.4c0.6-2,0.3-3.9-0.7-4.3l0,0l-6.9-2.1c-1-0.3-2.4,1.1-3,3.1l0,0l-10.8,34.9
	c-0.6,2-0.3,3.9,0.7,4.3l0,0l6.9,2.1c1,0.3,2.4-1.1,3-3.1l0,0l7.5-24l0.1,0L134.5,269.4z"/>
<ellipse transform="matrix(0.2968 -0.9549 0.9549 0.2968 -165.8009 311.9517)" class="st7" cx="128.9" cy="268.6" rx="2.4" ry="1.2"/>
<path class="st4" d="M131.7,283.4c-3.8-2.7-9.1-1.7-11.8,2.1c-0.3,0.4-0.5,0.8-0.7,1.3L99.9,286l-3.3,11.6l27.3,0.7
	c4.4,1.7,9.3-0.5,11-4.9C136.3,289.7,135,285.6,131.7,283.4L131.7,283.4z"/>
<path class="st3" d="M116.2,299.8l-22.2,2.8l-40,5c0,0-15.9-11.4-27.6-22v-20.9c0-4.9,0.9-9.7,2.6-14.2
	c20.6,1.1,36.6,27.1,36.6,27.1l25.6,2.5l18.5,1.8L116.2,299.8z"/>
<text transform="matrix(1 0 0 1 239 222.9313)" class="st8 st9">OK</text>
</svg>
