<?xml version="1.0" encoding="utf-8"?>
<!-- Generator: Adobe Illustrator 25.3.0, SVG Export Plug-In . SVG Version: 6.00 Build 0)  -->
<svg version="1.1" id="f710b5b1-eef6-41aa-8f14-e8820eb000f8"
	 xmlns="http://www.w3.org/2000/svg" xmlns:xlink="http://www.w3.org/1999/xlink" x="0px" y="0px" viewBox="0 0 683.4 586"
	 style="enable-background:new 0 0 683.4 586;" xml:space="preserve">
<style type="text/css">
	.st0{fill:#3F3D56;}
	.st1{fill:#CCCCCC;}
	.st2{fill:#FFB8B8;}
	.st3{fill:#F9A826;}
	.st4{fill:#2F2E41;}
	.st5{fill:#F2F2F2;}
</style>
<path class="st0" d="M219.3,377.2L66.7,409.4c-9.2,1.9-18.2-3.9-20.1-13.1L20.3,272c-1.9-9.2,3.9-18.2,13.1-20.1l152.6-32.2
	c9.2-1.9,18.2,3.9,20.1,13.1L232.4,357C234.4,366.2,228.5,375.2,219.3,377.2z M33.9,253.8c-8.1,1.7-13.3,9.7-11.6,17.8l26.2,124.3
	c1.7,8.1,9.7,13.3,17.8,11.6l152.6-32.2c8.1-1.7,13.3-9.7,11.6-17.8l-26.2-124.3c-1.7-8.1-9.7-13.3-17.8-11.6L33.9,253.8z"/>
<path id="ea648e8d-1b31-4ae2-9566-f54bfd0d94c9" class="st1" d="M176.6,260.6l-77,16.2c-1.4,0.3-2.8-0.5-3.2-1.9
	c-0.4-1.4,0.5-2.8,1.9-3.2c0,0,0.1,0,0.1,0l78.4-16.5C179.8,256.9,178.9,260.1,176.6,260.6L176.6,260.6z"/>
<path id="b4f9d9e0-1a47-44a2-8a19-0d88a6e9c18f" class="st1" d="M179.5,274.1l-77,16.2c-1.4,0.3-2.8-0.5-3.2-1.9
	c-0.4-1.4,0.5-2.8,1.9-3.2c0,0,0.1,0,0.1,0l78.4-16.5C182.7,270.4,181.7,273.7,179.5,274.1L179.5,274.1z"/>
<path id="e168965a-63e1-4676-8cbb-3e09d33a4a3f" class="st1" d="M87.4,301.6l-23.5,5c-1.6,0.3-3.2-0.7-3.5-2.3l-5.8-27.7
	c-0.3-1.6,0.7-3.2,2.3-3.5l23.5-5c1.6-0.3,3.2,0.7,3.5,2.3l5.8,27.7C90,299.7,89,301.2,87.4,301.6L87.4,301.6z"/>
<path id="af0ff97e-1a3a-4f6f-a511-2c807a938985" class="st1" d="M185.1,301.8L67.5,326.6c-1.4,0.3-2.8-0.5-3.2-1.9
	c-0.4-1.4,0.5-2.8,1.9-3.2c0,0,0.1,0,0.1,0l119-25.1C188.3,298.2,187.3,301.4,185.1,301.8L185.1,301.8z"/>
<path id="e60f2d91-ad3b-421b-94cb-3aa0f5092f21" class="st1" d="M187.9,315.4L70.4,340.1c-1.4,0.3-2.8-0.5-3.2-1.9
	c-0.4-1.4,0.5-2.8,1.9-3.2c0,0,0.1,0,0.1,0l119-25.1C191.1,311.7,190.2,314.9,187.9,315.4L187.9,315.4z"/>
<path id="a5554f8b-57e8-4c3b-815c-c76cc46b61b5" class="st1" d="M190.8,328.9L73.2,353.7c-1.4,0.3-2.8-0.5-3.2-1.9
	c-0.4-1.4,0.5-2.8,1.9-3.2c0,0,0.1,0,0.1,0l119-25.1C194,325.2,193,328.4,190.8,328.9z"/>
<path id="eee68bf7-fbe9-4bfc-85ae-b0141fb14f45" class="st1" d="M193.6,342.4L76.1,367.2c-1.4,0.3-2.8-0.5-3.2-1.9
	c-0.4-1.4,0.5-2.8,1.9-3.2c0,0,0.1,0,0.1,0l119-25.1C196.8,338.7,195.9,341.9,193.6,342.4L193.6,342.4z"/>
<path id="b9a7afa1-162f-46e2-88e2-f572ab59fc71" class="st1" d="M196.5,355.9L78.9,380.7c-1.4,0.3-2.8-0.5-3.2-1.9
	c-0.4-1.4,0.5-2.8,1.9-3.2c0,0,0.1,0,0.1,0l119-25.1C199.7,352.2,198.7,355.4,196.5,355.9L196.5,355.9z"/>
<path class="st2" d="M215.2,294c-0.3,0.5-0.5,1-0.7,1.5l-48.1,11.9l-8.4-8.7l-14.7,10.9l13.3,16.8c2.2,2.8,6,3.8,9.3,2.4l52.2-21.3
	c4.7,3.4,11.2,2.4,14.7-2.2c3.4-4.7,2.4-11.2-2.2-14.7c-4.7-3.4-11.2-2.4-14.7,2.2C215.7,293.3,215.4,293.7,215.2,294L215.2,294z"/>
<path class="st2" d="M50.9,400.3c5.7-1.8,8.8-7.8,7.1-13.4c-0.2-0.6-0.4-1.2-0.7-1.8l33.1-92.1l-23-4.1l-25.3,91.8
	c-5.1,3.1-6.8,9.7-3.7,14.8C41,399.9,46.2,401.8,50.9,400.3L50.9,400.3z"/>
<path class="st3" d="M86.2,309.4l-22.7-8.7c-2.5-1-3.7-3.7-2.8-6.2c0.1-0.2,0.2-0.4,0.3-0.6L73,272.7c2.7-6.9,10.4-10.3,17.3-7.6
	c6.9,2.7,10.3,10.4,7.6,17.3L92.7,306c-0.6,2.6-3.2,4.2-5.7,3.7C86.7,309.6,86.4,309.5,86.2,309.4L86.2,309.4z"/>
<polygon class="st2" points="137.5,573.2 149.8,573.2 155.6,525.9 137.5,525.9 "/>
<path class="st4" d="M134.4,569.2l24.1,0h0c8.5,0,15.4,6.9,15.4,15.4c0,0,0,0,0,0v0.5l-39.5,0L134.4,569.2z"/>
<polygon class="st2" points="68.5,573.2 80.8,573.2 86.6,525.9 68.5,525.9 "/>
<path class="st4" d="M65.4,569.2l24.1,0h0c8.5,0,15.4,6.9,15.4,15.4c0,0,0,0,0,0v0.5l-39.5,0L65.4,569.2z"/>
<path class="st4" d="M81.3,554.1H65.8c-2.5,0-4.5-2-4.5-4.5c0-0.1,0-0.1,0-0.2l7.4-158.3l0.5,0l74.9-2l14.7,158.4
	c0.2,2.5-1.6,4.7-4.1,4.9c0,0,0,0-0.1,0l-17.4,1.4c-2.3,0.2-4.3-1.4-4.8-3.6l-22.3-112.8c-0.1-0.7-0.8-1.2-1.5-1.2h0
	c-0.7,0-1.3,0.5-1.5,1.2l-21.4,113C85.3,552.6,83.5,554.1,81.3,554.1z"/>
<circle class="st2" cx="109.8" cy="225.3" r="24.6"/>
<path class="st3" d="M101.5,409.7c-11.7,0-23.7-3.1-33.7-12.2c-1.1-1-1.6-2.4-1.5-3.8c1.1-9.6,6.2-59.1,3.3-92.1
	c-1.2-12.5,3.6-24.9,13-33.3c9.1-8.4,21.7-12.1,34-9.8h0c0.3,0.1,0.6,0.1,0.9,0.2c19.7,3.8,33.3,22,31.8,42.3
	c-2.3,29.7-4.3,69.8-1.1,92.5c0.3,1.9-0.7,3.8-2.4,4.6C138.6,401.6,120.5,409.7,101.5,409.7z"/>
<path class="st3" d="M133.6,311.2c-1.2-0.8-1.9-2-2.1-3.4l-3-24c-2-7.1,2.2-14.5,9.3-16.5c7.1-2,14.4,2.1,16.5,9.2l9.9,22.2
	c1.1,2.4,0,5.3-2.4,6.4c-0.2,0.1-0.4,0.2-0.7,0.2l-23.4,6.5C136.2,312.2,134.7,312,133.6,311.2z"/>
<path class="st4" d="M101.2,249.5c-2.3,0-4.6-0.4-6.8-1.2c-1-0.4-1.9-0.7-2.9-1c-8.4-3.2-13.9-12.2-14.1-21.2s4.5-17.7,11.4-23.5
	s15.9-8.7,24.8-9.4c9.7-0.7,20.5,1.7,25.9,9.8c1.4,2.1,2.4,4.7,1.6,7.3c-0.3,0.8-0.7,1.5-1.3,2c-2.4,2.1-4.8,0.5-7.3,0.4
	c-3.4-0.2-6.4,2.5-7.5,5.7s-0.6,6.7,0.3,10c0.7,2,1.1,4,1.3,6.1c0.1,2.1-0.8,4.1-2.5,5.4c-2.1,1.3-4.9,0.5-7-0.7s-3.9-3-6.2-4
	s-5.3-0.7-6.7,1.3c-0.4,0.8-0.7,1.6-0.8,2.4C102.1,244.4,102.4,244.1,101.2,249.5L101.2,249.5z"/>
<path class="st0" d="M441.4,216h-156c-9.4,0-17-7.6-17-17V72c0-9.4,7.6-17,17-17h156c9.4,0,17,7.6,17,17v127
	C458.4,208.4,450.8,216,441.4,216z M285.4,57c-8.3,0-15,6.7-15,15v127c0,8.3,6.7,15,15,15h156c8.3,0,15-6.7,15-15V72
	c0-8.3-6.7-15-15-15H285.4z"/>
<path id="eb40ba0f-f2ca-41e6-ba2e-bd824fb45cdc" class="st1" d="M423.7,93.1h-78.7c-1.4,0-2.6-1.1-2.8-2.5c-0.1-1.5,1-2.7,2.5-2.8
	c0,0,0.1,0,0.1,0h80.1C427.6,90.2,426,93.1,423.7,93.1L423.7,93.1z"/>
<path id="ea390b26-798a-41d7-8695-eb41cfeb13d4" class="st1" d="M423.7,106.9h-78.7c-1.4,0-2.6-1.1-2.8-2.5c-0.1-1.5,1-2.7,2.5-2.8
	c0,0,0.1,0,0.1,0h80.1C427.6,104,426,106.9,423.7,106.9L423.7,106.9z"/>
<path id="f9b4f79e-9356-48bc-89d8-91f80de67df3" class="st0" d="M327.9,114.8h-24c-1.6,0-3-1.3-3-3V83.5c0-1.6,1.3-3,3-3h24
	c1.6,0,3,1.3,3,3v28.4C330.9,113.5,329.5,114.8,327.9,114.8L327.9,114.8z"/>
<path id="f3294a48-db04-45e1-afc8-dab6eb28e529" class="st1" d="M423.4,135.2H303.3c-1.4,0-2.6-1.1-2.8-2.5c-0.1-1.5,1-2.7,2.5-2.8
	c0,0,0.1,0,0.1,0h121.6C427.3,132.3,425.7,135.2,423.4,135.2L423.4,135.2z"/>
<path id="bb6dba8b-bb0a-4f92-a6ea-c6252f741607" class="st1" d="M423.4,149H303.3c-1.4,0-2.6-1.1-2.8-2.5c-0.1-1.5,1-2.7,2.5-2.8
	c0,0,0.1,0,0.1,0h121.6C427.3,146.1,425.7,149,423.4,149z"/>
<path id="b1d451cb-91ad-40cf-876e-6a74c98e5c4f" class="st1" d="M423.4,162.8H303.3c-1.4,0-2.6-1.1-2.8-2.5c-0.1-1.5,1-2.7,2.5-2.8
	c0,0,0.1,0,0.1,0h121.6C427.3,159.9,425.7,162.8,423.4,162.8z"/>
<path id="bcef27e7-bcca-4cc4-a6d4-200e9e04132c" class="st1" d="M423.4,176.7H303.3c-1.4,0-2.6-1.1-2.8-2.5c-0.1-1.5,1-2.7,2.5-2.8
	c0,0,0.1,0,0.1,0h121.6C427.3,173.7,425.7,176.7,423.4,176.7L423.4,176.7z"/>
<path id="ed29f808-f3a3-4ac8-bd45-563f73aa9d8b" class="st1" d="M423.4,190.5H303.3c-1.4,0-2.6-1.1-2.8-2.5c-0.1-1.5,1-2.7,2.5-2.8
	c0,0,0.1,0,0.1,0h121.6C427.3,187.5,425.7,190.5,423.4,190.5z"/>
<path class="st3" d="M407.4,42c2.8,0,5,2.2,5,5v16c0,2.8-2.2,5-5,5h-88c-2.8,0-5-2.2-5-5V47c0-2.8,2.2-5,5-5"/>
<path class="st0" d="M666.4,373h-156c-9.4,0-17-7.6-17-17V229c0-9.4,7.6-17,17-17h156c9.4,0,17,7.6,17,17v127
	C683.4,365.4,675.8,373,666.4,373z M510.4,214c-8.3,0-15,6.7-15,15v127c0,8.3,6.7,15,15,15h156c8.3,0,15-6.7,15-15V229
	c0-8.3-6.7-15-15-15H510.4z"/>
<path id="ab56b95a-ad0a-4db6-b885-1de339e59248" class="st0" d="M648.7,250.1h-78.7c-1.4,0-2.6-1.1-2.8-2.5c-0.1-1.5,1-2.7,2.5-2.8
	c0,0,0.1,0,0.1,0h80.1C652.6,247.2,651,250.1,648.7,250.1L648.7,250.1z"/>
<path id="a65ba0e0-92d5-467b-b937-6962ba88422c" class="st0" d="M648.7,263.9h-78.7c-1.4,0-2.6-1.1-2.8-2.5c-0.1-1.5,1-2.7,2.5-2.8
	c0,0,0.1,0,0.1,0h80.1C652.6,261,651,263.9,648.7,263.9L648.7,263.9z"/>
<path id="fb801fe4-3edc-4e65-9957-dec023933e0a" class="st1" d="M552.9,271.8h-24c-1.6,0-3-1.3-3-3v-28.4c0-1.6,1.3-3,3-3h24
	c1.6,0,3,1.3,3,3v28.4C555.9,270.5,554.5,271.8,552.9,271.8L552.9,271.8z"/>
<path id="faab0864-6611-44c5-86ab-6dd51d336b1d" class="st0" d="M647.9,348.8h-24c-1.6,0-3-1.3-3-3v-16.4c0-1.6,1.3-3,3-3h24
	c1.6,0,3,1.3,3,3v16.4C650.9,347.5,649.5,348.8,647.9,348.8L647.9,348.8z"/>
<path id="ada3facf-2b93-40cb-83c6-b6d8dc380c35" class="st1" d="M648.4,292.2H528.3c-1.4,0-2.6-1.1-2.8-2.5c-0.1-1.5,1-2.7,2.5-2.8
	c0,0,0.1,0,0.1,0h121.6C652.3,289.3,650.7,292.2,648.4,292.2L648.4,292.2z"/>
<path id="a50891a7-c495-4965-ab40-a1f907e5cce2" class="st1" d="M648.4,306H528.3c-1.4,0-2.6-1.1-2.8-2.5c-0.1-1.5,1-2.7,2.5-2.8
	c0,0,0.1,0,0.1,0h121.6C652.3,303.1,650.7,306,648.4,306z"/>
<path id="f645be9d-0c31-4d92-bfb2-feede413f090" class="st1" d="M648.4,319.8H528.3c-1.4,0-2.6-1.1-2.8-2.5c-0.1-1.5,1-2.7,2.5-2.8
	c0,0,0.1,0,0.1,0h121.6C652.3,316.9,650.7,319.8,648.4,319.8z"/>
<path id="f96ba49d-c571-4857-91da-e214cd5ba82f" class="st1" d="M585.4,333.7h-57.2c-1.4,0-2.6-1.1-2.8-2.5c-0.1-1.5,1-2.7,2.5-2.8
	c0,0,0.1,0,0.1,0h58.6C589.3,330.7,587.7,333.7,585.4,333.7L585.4,333.7z"/>
<path id="a7214c6f-9d52-425a-b9ef-635698aec079" class="st1" d="M585.4,347.5h-57.2c-1.4,0-2.6-1.1-2.8-2.5c-0.1-1.5,1-2.7,2.5-2.8
	c0,0,0.1,0,0.1,0h58.6C589.3,344.5,587.7,347.5,585.4,347.5z"/>
<path class="st3" d="M632.4,225h-88c-2.8,0-5-2.2-5-5v-16c0-2.8,2.2-5,5-5h88c2.8,0,5,2.2,5,5v16C637.4,222.8,635.1,225,632.4,225z"
	/>
<circle class="st5" cx="42.8" cy="65.3" r="6.5"/>
<circle class="st5" cx="42.8" cy="91.1" r="6.5"/>
<circle class="st5" cx="42.8" cy="116.9" r="6.5"/>
<circle class="st5" cx="42.8" cy="142.6" r="6.5"/>
<circle class="st5" cx="69.8" cy="65.3" r="6.5"/>
<circle class="st5" cx="69.8" cy="91.1" r="6.5"/>
<circle class="st5" cx="69.8" cy="116.9" r="6.5"/>
<circle class="st5" cx="69.8" cy="142.6" r="6.5"/>
<circle class="st5" cx="96.8" cy="65.3" r="6.5"/>
<circle class="st5" cx="96.8" cy="91.1" r="6.5"/>
<circle class="st5" cx="96.8" cy="116.9" r="6.5"/>
<circle class="st5" cx="96.8" cy="142.6" r="6.5"/>
<circle class="st5" cx="123.8" cy="65.3" r="6.5"/>
<circle class="st5" cx="123.8" cy="91.1" r="6.5"/>
<circle class="st5" cx="123.8" cy="116.9" r="6.5"/>
<circle class="st5" cx="123.8" cy="142.6" r="6.5"/>
<circle class="st5" cx="150.8" cy="65.3" r="6.5"/>
<circle class="st5" cx="150.8" cy="91.1" r="6.5"/>
<circle class="st5" cx="150.8" cy="116.9" r="6.5"/>
<circle class="st5" cx="150.8" cy="142.6" r="6.5"/>
<circle class="st5" cx="177.8" cy="65.3" r="6.5"/>
<circle class="st5" cx="177.8" cy="91.1" r="6.5"/>
<circle class="st5" cx="177.8" cy="116.9" r="6.5"/>
<circle class="st5" cx="177.8" cy="142.6" r="6.5"/>
<circle class="st5" cx="547.8" cy="423.3" r="6.5"/>
<circle class="st5" cx="547.8" cy="449.1" r="6.5"/>
<circle class="st5" cx="547.8" cy="474.9" r="6.5"/>
<circle class="st5" cx="574.8" cy="423.3" r="6.5"/>
<circle class="st5" cx="574.8" cy="449.1" r="6.5"/>
<circle class="st5" cx="574.8" cy="474.9" r="6.5"/>
<circle class="st5" cx="601.8" cy="423.3" r="6.5"/>
<circle class="st5" cx="601.8" cy="449.1" r="6.5"/>
<circle class="st5" cx="601.8" cy="474.9" r="6.5"/>
<circle class="st5" cx="628.8" cy="423.3" r="6.5"/>
<circle class="st5" cx="628.8" cy="449.1" r="6.5"/>
<circle class="st5" cx="628.8" cy="474.9" r="6.5"/>
</svg>
