<?xml version="1.0" encoding="utf-8"?>
<!-- Generator: Adobe Illustrator 25.3.0, SVG Export Plug-In . SVG Version: 6.00 Build 0)  -->
<svg version="1.1" id="ad38fc70-8020-4243-af0b-1d7dc942eb8a"
	 xmlns="http://www.w3.org/2000/svg" xmlns:xlink="http://www.w3.org/1999/xlink" x="0px" y="0px" viewBox="0 0 629 540.7"
	 style="enable-background:new 0 0 629 540.7;" xml:space="preserve">
<style type="text/css">
	.st0{fill:#E6E6E6;}
	.st1{fill:#F9A826;}
	.st2{fill:#FFFFFF;}
	.st3{fill:#9F616A;}
	.st4{fill:#2F2E41;}
	.st5{fill:#3F3D56;}
</style>
<rect id="ae13a9af-8be6-48d2-be97-15b9bb35f653" x="0.3" y="0.4" class="st0" width="532.3" height="313.5"/>
<rect id="a5b6fe3b-52e9-48cc-a961-c4a66fbfd4e0" class="st1" width="532.3" height="32.4"/>
<rect id="f9022efb-4ab6-4da5-b9f8-05744185cb65" x="12.3" y="42.4" class="st2" width="507.5" height="256"/>
<circle id="b8863a4f-d6d1-45f4-aeb2-54ce0fc41c58" class="st2" cx="50.4" cy="16.1" r="5.4"/>
<circle id="bbe8bb57-e8a1-4ebb-9530-09dc8d102d8f" class="st2" cx="70.8" cy="16.1" r="5.4"/>
<circle id="e8afff7b-3b6f-4dbf-9548-6e45ece64f65" class="st2" cx="30" cy="16.1" r="5.4"/>
<rect id="b1f15dfa-2d28-41bb-b4d1-13ec40007797" x="71.5" y="86.6" class="st0" width="389.1" height="10.2"/>
<rect id="ad95e1cc-3eac-41f8-b758-723622ce1f63" x="196.7" y="112" class="st0" width="138.7" height="10.2"/>
<rect id="b780e72c-b22a-4ee2-b16a-5905a6a8a985" x="196.7" y="163.5" class="st0" width="138.7" height="10.2"/>
<rect id="a53233dc-737e-4f4d-ba21-0434f7dacc3a" x="196.7" y="189.9" class="st0" width="138.7" height="10.2"/>
<rect id="a2199747-3d5b-4c24-9aea-bee34d6022f4" x="127.8" y="137.4" class="st0" width="276.4" height="10.2"/>
<rect x="387.6" y="236.1" class="st1" width="73" height="18"/>
<polygon class="st3" points="531.2,529.4 519,529.4 513.1,482.1 531.2,482.1 "/>
<path class="st4" d="M510.2,525.9h23.6l0,0v14.9l0,0h-38.5l0,0l0,0C495.3,532.5,502,525.9,510.2,525.9z"/>
<polygon class="st3" points="577.2,529.4 565,529.4 559.1,482.1 577.2,482.1 "/>
<path class="st4" d="M556.2,525.9h23.6l0,0v14.9l0,0h-38.5l0,0l0,0C541.3,532.5,548,525.9,556.2,525.9z"/>
<path class="st3" d="M575.7,388.5c-5-3.2-6.4-9.9-3.2-14.8c0.3-0.5,0.7-1,1.2-1.5l-8.1-114.6l23.3,2.3l0.6,112.2
	c4.1,4.3,3.9,11.2-0.4,15.3C585.4,390.8,579.9,391.3,575.7,388.5L575.7,388.5z"/>
<path class="st4" d="M530.7,505.5l-13.5-0.6c-2.4-0.1-4.3-2.1-4.3-4.5l-0.9-136.6c0-2.5,2-4.5,4.5-4.5c0.2,0,0.5,0,0.7,0l54,7.8
	c2.2,0.3,3.8,2.2,3.9,4.4l6.9,126.5c0,2.5-2,4.5-4.5,4.5c0,0,0,0,0,0h-14.5c-2.2,0-4.1-1.6-4.4-3.8c0,0-11-94.9-12.5-94.9
	c-1.5,0-10.5,97.5-10.5,97.5c-0.3,2.3-2.2,4-4.5,4C530.8,505.5,530.7,505.5,530.7,505.5z"/>
<path class="st5" d="M570.9,296.1c-1.1-0.8-1.8-2-1.9-3.4l-1.7-30.9c-0.4-6.8,4.9-12.7,11.7-13.1c5.8-0.3,11.1,3.5,12.6,9.1
	l7.5,27.6c0.6,2.4-0.8,4.9-3.2,5.5l-21.3,5.8C573.4,297.2,572,296.9,570.9,296.1z"/>
<circle class="st3" cx="551" cy="198.2" r="24.6"/>
<path class="st3" d="M462,246.4c0.1,0.5,0.2,1.1,0.2,1.6l43,24.8l10.4-6l11.1,14.6l-22.3,15.9l-49-38.7c-5.4,2-11.5-0.8-13.5-6.2
	c-2-5.4,0.8-11.5,6.2-13.5c5.4-2,11.5,0.8,13.5,6.2C461.7,245.6,461.9,246,462,246.4L462,246.4z"/>
<path class="st5" d="M506.7,270.7c-0.1-1.4,0.3-2.7,1.3-3.7l21.9-21.9c4.8-4.8,12.7-4.8,17.5,0c4.1,4.1,4.8,10.6,1.6,15.5l-15.6,24
	c-1.4,2.1-4.1,2.7-6.2,1.3l-18.5-12C507.6,273.3,506.8,272.1,506.7,270.7z"/>
<path class="st4" d="M568.4,217.6c-4.6,4.9-13.1,2.3-13.7-4.4c0-0.5,0-1,0-1.6c0.3-3,2-5.6,1.6-8.8c-0.1-0.8-0.4-1.5-0.8-2.1
	c-3.7-4.9-12.2,2.2-15.7-2.2c-2.1-2.7,0.4-7-1.3-10c-2.1-4-8.5-2-12.5-4.2c-4.4-2.4-4.2-9.2-1.2-13.4c3.6-5,9.8-7.7,15.9-8.1
	s12.3,1.3,18,3.5c6.5,2.5,13,6.1,17,11.8c4.9,7,5.3,16.3,2.9,24.5C577.2,207.6,572.1,213.6,568.4,217.6z"/>
<path class="st5" d="M628,540.6H435c-0.6,0-1-0.4-1-1s0.4-1,1-1h193c0.6,0,1,0.4,1,1S628.5,540.6,628,540.6z"/>
<path class="st5" d="M575.5,239.1c-0.4-0.3-0.9-0.6-1.3-0.9c-2.4-1.6-4.9-2.8-7.6-3.7v-6.5h-19v6c-12.9,3.6-22.4,14.4-24.2,27.7
	l-12.9,96.1c-0.2,1.2,0.2,2.4,0.9,3.4c0.7,1,1.8,1.6,3.1,1.7c4.5,0.4,13.8,2.2,25.7,8.8c5.7,3.2,12.2,4.8,18.7,4.8
	c5.2,0,10.3-0.9,15.2-2.7c1.7-0.6,2.8-2.2,2.9-4c0.5-10.3,3.2-63.5,11.1-96C591.3,260.7,586.3,247.1,575.5,239.1z"/>
</svg>
