<?xml version="1.0" encoding="utf-8"?>
<!-- Generator: Adobe Illustrator 25.3.0, SVG Export Plug-In . SVG Version: 6.00 Build 0)  -->
<svg version="1.1" id="a115e649-e6de-4a08-abb2-c2a69b6ac895"
	 xmlns="http://www.w3.org/2000/svg" xmlns:xlink="http://www.w3.org/1999/xlink" x="0px" y="0px" viewBox="0 0 701 540.8"
	 style="enable-background:new 0 0 701 540.8;" xml:space="preserve">
<style type="text/css">
	.st0{fill:#FF6584;}
	.st1{fill:#E6E6E6;}
	.st2{fill:#F9A826;}
	.st3{fill:#3F3D56;}
	.st4{fill:#FFFFFF;}
</style>
<circle class="st0" cx="73.9" cy="71.3" r="46"/>
<ellipse class="st1" cx="334.8" cy="522.8" rx="334.8" ry="18"/>
<circle class="st2" cx="113" cy="184.2" r="113"/>
<polygon class="st3" points="123.9,524.6 100.7,524.6 111.3,167.2 "/>
<polygon class="st3" points="113.3,234.9 138.2,200.6 113,243.4 110.3,238.7 "/>
<polygon class="st3" points="110.6,269.6 85.8,235.3 111,278.2 113.7,273.4 "/>
<circle class="st3" cx="459.1" cy="314.4" r="210.5"/>
<circle class="st4" cx="459.1" cy="314.4" r="193.1"/>
<circle class="st3" cx="458.4" cy="315.1" r="25.8"/>
<rect x="452.8" y="131.1" class="st3" width="11.2" height="20.9"/>
<rect x="452.8" y="478.2" class="st3" width="11.2" height="20.9"/>
<rect x="274.3" y="309.5" class="st3" width="20.9" height="11.2"/>
<rect x="621.5" y="309.5" class="st3" width="20.9" height="11.2"/>
<polygon class="st3" points="450.9,326.3 460.5,304.5 579.9,370.6 "/>
<rect x="431.9" y="53" class="st3" width="54.4" height="62.7"/>
<ellipse class="st3" cx="459.1" cy="53" rx="62.7" ry="17.4"/>
</svg>
