<?xml version="1.0" encoding="utf-8"?>
<!-- Generator: Adobe Illustrator 25.3.0, SVG Export Plug-In . SVG Version: 6.00 Build 0)  -->
<svg version="1.1" id="ad6b5295-7ebf-4dc3-a7a8-a4a4b8d35fca"
	 xmlns="http://www.w3.org/2000/svg" xmlns:xlink="http://www.w3.org/1999/xlink" x="0px" y="0px" viewBox="0 0 654 512.2"
	 style="enable-background:new 0 0 654 512.2;" xml:space="preserve">
<style type="text/css">
	.st0{fill:#E6E6E6;}
	.st1{fill:#A0616A;}
	.st2{fill:#2F2E41;}
	.st3{fill:#CCCCCC;}
	.st4{fill:#F9A826;}
</style>
<path class="st0" d="M584.6,510.7L562,442.6c0,0,24.8,24.8,24.8,45.2l-4.5-47.1c0,0,12.7,17.2,11.5,43.3S584.6,510.7,584.6,510.7z"
	/>
<path class="st0" d="M100,448.7l-22-66.5c0,0,24.2,24.2,24.2,44.1l-4.3-46c0,0,12.4,16.8,11.2,42.2S100,448.7,100,448.7z"/>
<path class="st0" d="M443.7,479.4c0,43.7-86.7,30.3-192.8,30.4s-191.5,13.7-191.6-30s86.6-53.3,192.8-53.4S443.7,435.6,443.7,479.4z
	"/>
<polygon class="st1" points="369.3,420.3 355.5,420.3 348.9,366.8 369.3,366.8 "/>
<path class="st2" d="M344,416.4h28.3l0,0v16.9l0,0h-43.6l0,0v-1.5C328.7,423.2,335.6,416.4,344,416.4z"/>
<polygon class="st1" points="471.3,499.3 457.5,499.3 450.9,445.8 471.3,445.8 "/>
<path class="st2" d="M446,495.4h28.3l0,0v16.9l0,0h-43.6l0,0v-1.5C430.7,502.2,437.6,495.4,446,495.4z"/>
<path class="st1" d="M535.3,340.3c3.6-4.4,3-10.9-1.4-14.5c-0.5-0.4-1-0.7-1.5-1l-32.2-131.3l-20.6,8.9l38.3,126.9
	c-2.5,5.2-0.3,11.4,4.9,13.8C527.1,345.2,532.3,344,535.3,340.3L535.3,340.3z"/>
<path class="st1" d="M510.2,75c-4.3-4.5-11.6-4.7-16.1-0.4c-0.5,0.5-0.9,1-1.3,1.5l-49.9,5.7l7.6,19.2l45.4-8.5
	c5.3,3.4,12.4,1.8,15.8-3.5C514.5,84.6,513.9,78.8,510.2,75z"/>
<path class="st2" d="M428,326.7l21.8,163.4l27.1-5.6c0,0-4-119,9.6-133.3S469,311.7,469,311.7L428,326.7z"/>
<path class="st2" d="M437,281.7l-10,15c0,0-77-32-77,19c0,51-4.4,85.6-6,88s18.4,8.6,28,7c0,0,11.8-82.2,11-87
	c0,0,75.5,37,89.9,33.8s17.7-14.5,20.1-20.8s-1-57-1-57l-47.8-14.6L437,281.7z"/>
<path class="st3" d="M438.3,191.6l-2.9-3.4c0,0-31.9-71.8-19.4-91.2s67.3-22.2,69-21.1S481,91.9,485,98.7c0,0-42.4,9.2-45.2,10.3
	s22,43.3,22,43.3l-2.9,25.7L438.3,191.6z"/>
<path class="st3" d="M494.2,156.3c0,0-29.6,3.4-30.8,3.4s-1.7-7.4-1.7-7.4l-26.2,35.9c0,0-12.9,104.2-9.5,102.5s66.5,8.1,67.1,3.6
	c0.6-4.6-0.6-27.4,1.1-28.5s29.6-71.8,29.6-71.8s-2.9-14.8-12.5-20S494.2,156.3,494.2,156.3z"/>
<path class="st3" d="M514.7,184.2l9.1,9.7c0,0,13.6,111.4,6.1,114.8c-7.4,3.4-22,3-22,3l-14.4-52.8L514.7,184.2z"/>
<circle class="st1" cx="465.7" cy="123" r="26.2"/>
<path class="st2" d="M459.6,127.1c-0.4-5.4-7.2-5.6-12.7-5.7s-12,0.1-15.1-4.4c-2-3-1.7-7.1,0-10.3s4.5-5.6,7.2-8
	c7-6.1,14.3-12.1,22.8-16s18.4-5.5,27.1-2.3c10.8,3.8,25.3,23.6,26.6,35s-3.3,23-10.9,31.4s-25.2,5.1-36.2,8.1
	c6.7-9.5,2.3-26.7-8.5-31.2L459.6,127.1z"/>
<circle class="st4" cx="225.7" cy="403.5" r="63"/>
<path class="st4" d="M183.7,336c-17.8,0-34-10.5-41.3-26.8L42.4,84.2C29,54,42.6,18.6,72.8,5.2c30.2-13.4,65.6,0.2,79,30.4
	c1,2.2,1.8,4.4,2.5,6.7l72.4,235.4c7.3,23.8-6,49-29.8,56.3C192.6,335.4,188.1,336,183.7,336L183.7,336z"/>
</svg>
